<svg width="313" height="129" viewBox="0 0 313 129" fill="none" xmlns="http://www.w3.org/2000/svg">
<path d="M8.41843 1.98853C8.68825 1.20528 8.27202 0.351591 7.48877 0.0817734C6.70551 -0.188044 5.85183 0.228177 5.582 1.01144L8.41843 1.98853ZM296.58 127.483C296.847 128.268 297.699 128.687 298.483 128.42L311.264 124.072C312.048 123.805 312.467 122.953 312.201 122.169C311.934 121.384 311.082 120.965 310.297 121.232L298.937 125.097L295.072 113.736C294.805 112.952 293.953 112.533 293.169 112.799C292.384 113.066 291.965 113.918 292.232 114.703L296.58 127.483ZM5.582 1.01144C-0.936971 19.9354 -0.474145 34.6891 5.57194 46.0914C11.6039 57.4672 23.023 65.1809 37.7104 70.4153C67.0251 80.8626 110.271 81.7407 153.126 81.3395C196.159 80.9367 238.807 79.2458 267.44 84.3587C281.799 86.9226 292.203 91.1347 297.469 97.6915C302.58 104.056 303.171 113.1 296.654 126.338L299.346 127.663C306.112 113.918 305.962 103.476 299.808 95.813C293.809 88.3426 282.423 83.9866 267.968 81.4054C238.973 76.2282 195.894 77.939 153.098 78.3397C110.124 78.7419 67.439 77.8253 38.7175 67.5894C24.3868 62.4821 13.7615 55.1322 8.22238 44.686C2.69735 34.2663 2.06234 20.4396 8.41843 1.98853L5.582 1.01144Z" fill="#F89522"/>
</svg>
