<svg width="2563" height="1974" viewBox="0 0 2563 1974" fill="none" xmlns="http://www.w3.org/2000/svg">
<path d="M1663.07 161.068L1707.3 296.216L1679.83 296.078L1657.77 213.002L1663.07 161.068Z" fill="#E0E0E0"/>
<path d="M1512.06 36.2236L1496.86 295.153L1653.83 299.034L1671.47 36.2236H1512.06Z" fill="#EBEBEB"/>
<path d="M1527.77 57.1091L1515.08 272.56L1631.77 279.121L1648.1 55.8154L1527.77 57.1091Z" fill="#FAFAFA"/>
<path d="M1553.35 87.5566L1543.9 239.015H1608.25L1619.62 87.5566H1553.35Z" fill="#E0E0E0"/>
<path d="M1357.26 296.772V167.122H1436.73V296.679L1357.26 296.772Z" fill="#EBEBEB"/>
<path d="M1402.45 167.122C1402.45 167.122 1421.6 -0.230783 1416.22 0.000238966C1410.84 0.231261 1397.38 152.475 1397.38 152.475C1397.38 152.475 1396.76 26.4292 1391.77 27.076C1386.78 27.7229 1391.77 160.653 1391.77 160.653C1391.77 160.653 1383.1 52.8119 1378.46 55.3993C1373.82 57.9868 1380.43 167.122 1380.43 167.122H1402.45" fill="#E0E0E0"/>
<path d="M1387.98 167.122C1387.98 167.122 1394.63 83.7234 1396.76 89.4065C1398.89 95.0897 1396.76 139.076 1396.76 139.076C1396.76 139.076 1415.14 31.2813 1419.98 34.9777C1424.81 38.6741 1401.13 151.967 1401.13 151.967C1401.13 151.967 1419.09 87.2811 1423.03 94.0732C1426.98 100.865 1408.37 161.578 1408.37 161.578C1408.37 161.578 1427.71 118.654 1428.95 124.614C1430.19 130.575 1419.74 167.307 1419.74 167.307L1387.98 167.122Z" fill="#EBEBEB"/>
<path d="M1376.64 167.631C1376.64 167.631 1334.08 68.0141 1339.42 71.1097C1344.76 74.2054 1371.84 138.522 1371.84 138.522C1371.84 138.522 1353.85 76.3309 1357.8 74.5289C1361.75 72.7269 1381.48 144.298 1381.48 144.298L1385.89 167.631H1376.64Z" fill="#F5F5F5"/>
<path d="M1394.05 167.352L1396.03 296.956H1358.26L1357.53 166.937L1394.05 167.352Z" fill="#E0E0E0"/>
<path d="M1357.33 178.581L1393.94 179.32L1436.73 178.581L1438.08 166.198H1356.29L1357.33 178.581Z" fill="#E0E0E0"/>
<path d="M1833.28 293.167H1276.78V327.404H1833.28V293.167Z" fill="#E0E0E0"/>
<path d="M404.557 867.626L412.567 1948.72H53.9741V882.365L404.557 867.626Z" fill="#F5F5F5"/>
<path d="M211.371 875.759L214.544 1948.72H53.9741V882.366L211.371 875.759Z" fill="#E0E0E0"/>
<path d="M393.298 880.981V1032.49H223.443V888.143L393.298 880.981Z" fill="#E0E0E0"/>
<path d="M334.719 922.658V945.021H282.757V920.625L334.719 922.658Z" fill="#F5F5F5"/>
<path d="M334.719 963.871H281.054V973.02H334.719V963.871Z" fill="#F5F5F5"/>
<path d="M393.298 1411.96V1563.51H223.443V1419.12L393.298 1411.96Z" fill="#E0E0E0"/>
<path d="M334.719 1453.69V1476.05H282.757V1451.65L334.719 1453.69Z" fill="#F5F5F5"/>
<path d="M334.719 1494.85H281.054V1504H334.719V1494.85Z" fill="#F5F5F5"/>
<path d="M393.298 1051.8V1203.35H223.443V1058.96L393.298 1051.8Z" fill="#E0E0E0"/>
<path d="M334.719 1093.47V1115.88H282.757V1091.44L334.719 1093.47Z" fill="#F5F5F5"/>
<path d="M334.719 1134.69H281.054V1143.84H334.719V1134.69Z" fill="#F5F5F5"/>
<path d="M393.298 1582.78V1734.28H223.443V1589.94L393.298 1582.78Z" fill="#E0E0E0"/>
<path d="M334.719 1624.45V1646.82H282.757V1622.42L334.719 1624.45Z" fill="#F5F5F5"/>
<path d="M334.719 1665.67H281.054V1674.82H334.719V1665.67Z" fill="#F5F5F5"/>
<path d="M395.117 1753.55V1905.1H225.261V1760.71L395.117 1753.55Z" fill="#E0E0E0"/>
<path d="M336.538 1795.23V1817.64H284.575V1793.19L336.538 1795.23Z" fill="#F5F5F5"/>
<path d="M336.538 1836.44H282.873V1845.59H336.538V1836.44Z" fill="#F5F5F5"/>
<path d="M395.503 1233.24H225.648V1384.79H395.503V1233.24Z" fill="#E0E0E0"/>
<path d="M335.802 1301.53V1322.56H286.935V1299.64L335.802 1301.53Z" fill="#F5F5F5"/>
<path d="M335.803 1340.25H285.349V1348.85H335.803V1340.25Z" fill="#F5F5F5"/>
<path d="M1451.47 1816.8V1948.9H1613.24H1791.65V1816.8H1451.47Z" fill="#F5F5F5"/>
<path d="M1437.19 1779.89V1816.8H1803.53V1779.89H1613.24H1437.19Z" fill="#E0E0E0"/>
<path d="M1620.36 1948.9H1791.65V1816.8H1803.52V1779.89H1613.24V1813.38L1620.36 1948.9Z" fill="#E0E0E0"/>
<path d="M1568.05 1838.1H1499.06V1857.97H1568.05V1838.1Z" fill="#E0E0E0"/>
<path d="M1578.73 1882.83H1490.16V1924.83H1578.73V1882.83Z" fill="white"/>
<path d="M1890.97 1647.79V1779.89H2052.7H2231.1V1647.79H1890.97Z" fill="#F5F5F5"/>
<path d="M1876.69 1610.87V1647.79H2242.98V1610.87H2052.7H1876.69Z" fill="#E0E0E0"/>
<path d="M2059.86 1779.89H2231.1V1647.79H2242.98V1610.87H2052.7V1644.37L2059.86 1779.89Z" fill="#E0E0E0"/>
<path d="M2007.51 1669.09H1938.52V1688.96H2007.51V1669.09Z" fill="#E0E0E0"/>
<path d="M2018.22 1713.81H1929.66V1755.81H2018.22V1713.81Z" fill="white"/>
<path d="M1874.64 1816.8V1948.9H2036.41H2214.81V1816.8H1874.64Z" fill="#F5F5F5"/>
<path d="M1860.4 1779.89V1816.8H2226.69V1779.89H2036.41H1860.4Z" fill="#E0E0E0"/>
<path d="M2043.57 1948.9H2214.81V1816.8H2226.69V1779.89H2036.41V1813.38L2043.57 1948.9Z" fill="#E0E0E0"/>
<path d="M1991.22 1838.1H1922.23V1857.97H1991.22V1838.1Z" fill="#E0E0E0"/>
<path d="M2001.93 1882.83H1913.37V1924.83H2001.93V1882.83Z" fill="white"/>
<path d="M2210.02 867.072L2202.01 1948.12H2560.56V881.811L2210.02 867.072Z" fill="#F5F5F5"/>
<path d="M2403.2 875.205L2400.03 1948.12H2560.56V881.812L2403.2 875.205Z" fill="#E0E0E0"/>
<path d="M2221.28 880.425V1031.93H2391.13V887.587L2221.28 880.425Z" fill="#E0E0E0"/>
<path d="M2279.85 922.103V944.466H2331.82V920.07L2279.85 922.103Z" fill="#F5F5F5"/>
<path d="M2333.52 963.314H2279.85V972.463H2333.52V963.314Z" fill="#F5F5F5"/>
<path d="M2221.28 1411.41V1562.96H2391.13V1418.57L2221.28 1411.41Z" fill="#E0E0E0"/>
<path d="M2279.85 1453.13V1475.49H2331.82V1451.1L2279.85 1453.13Z" fill="#F5F5F5"/>
<path d="M2333.52 1494.3H2279.85V1503.45H2333.52V1494.3Z" fill="#F5F5F5"/>
<path d="M2221.28 1051.25V1202.8H2391.13V1058.41L2221.28 1051.25Z" fill="#E0E0E0"/>
<path d="M2279.85 1092.92V1115.33H2331.82V1090.89L2279.85 1092.92Z" fill="#F5F5F5"/>
<path d="M2333.52 1134.13H2279.85V1143.28H2333.52V1134.13Z" fill="#F5F5F5"/>
<path d="M2221.28 1582.22V1733.73H2391.13V1589.39L2221.28 1582.22Z" fill="#E0E0E0"/>
<path d="M2279.85 1623.9V1646.27H2331.82V1621.87L2279.85 1623.9Z" fill="#F5F5F5"/>
<path d="M2333.52 1665.11H2279.85V1674.26H2333.52V1665.11Z" fill="#F5F5F5"/>
<path d="M2219.46 1753V1904.55H2389.31V1760.16L2219.46 1753Z" fill="#E0E0E0"/>
<path d="M2278 1794.67V1817.08H2330V1792.64L2278 1794.67Z" fill="#F5F5F5"/>
<path d="M2331.66 1835.89H2278V1845.04H2331.66V1835.89Z" fill="#F5F5F5"/>
<path d="M2388.93 1232.69H2219.07V1384.24H2388.93V1232.69Z" fill="#E0E0E0"/>
<path d="M2278.77 1300.98V1322H2327.64V1299.04L2278.77 1300.98Z" fill="#F5F5F5"/>
<path d="M2329.23 1339.7H2278.77V1348.29H2329.23V1339.7Z" fill="#F5F5F5"/>
<path d="M2563 1948.76C2563 1949.41 1989.21 1949.97 1281.58 1949.97C573.949 1949.97 0 1949.41 0 1948.76C0 1948.12 573.678 1947.61 1281.58 1947.61C1989.48 1947.61 2563 1948.07 2563 1948.76Z" fill="#263238"/>
<path d="M763.305 706.557L790.622 1262.81C791.085 1272.36 794.583 1281.33 800.4 1287.9C806.218 1294.47 813.916 1298.14 821.923 1298.16L1660.37 1301.21C1664.5 1301.23 1668.59 1300.27 1672.41 1298.4C1676.23 1296.53 1679.7 1293.78 1682.63 1290.3C1685.56 1286.83 1687.89 1282.69 1689.48 1278.14C1691.07 1273.59 1691.89 1268.71 1691.9 1263.78L1693.02 830.663C1693.03 825.71 1692.22 820.804 1690.64 816.227C1689.06 811.65 1686.73 807.492 1683.8 803.992C1680.86 800.492 1677.38 797.72 1673.54 795.834C1669.71 793.949 1665.6 792.988 1661.45 793.006L1145.81 795.085C1141.68 795.104 1137.59 794.15 1133.78 792.279C1129.96 790.408 1126.49 787.656 1123.56 784.181L1034.22 678.465C1028.35 671.524 1020.43 667.609 1012.17 667.561L794.8 666.775C790.507 666.767 786.257 667.807 782.312 669.831C778.368 671.856 774.811 674.822 771.862 678.548C768.912 682.273 766.631 686.68 765.16 691.497C763.689 696.314 763.058 701.439 763.305 706.557V706.557Z" fill="#FF9800"/>
<path opacity="0.3" d="M763.305 706.557L790.622 1262.81C791.085 1272.36 794.583 1281.33 800.4 1287.9C806.218 1294.47 813.916 1298.14 821.923 1298.16L1660.37 1301.21C1664.5 1301.23 1668.59 1300.27 1672.41 1298.4C1676.23 1296.53 1679.7 1293.78 1682.63 1290.3C1685.56 1286.83 1687.89 1282.69 1689.48 1278.14C1691.07 1273.59 1691.89 1268.71 1691.9 1263.78L1693.02 830.663C1693.03 825.71 1692.22 820.804 1690.64 816.227C1689.06 811.65 1686.73 807.492 1683.8 803.992C1680.86 800.492 1677.38 797.72 1673.54 795.834C1669.71 793.949 1665.6 792.988 1661.45 793.006L1145.81 795.085C1141.68 795.104 1137.59 794.15 1133.78 792.279C1129.96 790.408 1126.49 787.656 1123.56 784.181L1034.22 678.465C1028.35 671.524 1020.43 667.609 1012.17 667.561L794.8 666.775C790.507 666.767 786.257 667.807 782.312 669.831C778.368 671.856 774.811 674.822 771.862 678.548C768.912 682.273 766.631 686.68 765.16 691.497C763.689 696.314 763.058 701.439 763.305 706.557V706.557Z" fill="black"/>
<path d="M1048.56 457.709L772.849 889.904L1062.19 1153.13L1337.9 720.931L1048.56 457.709Z" fill="white"/>
<path d="M1048.54 457.654L1047.26 459.78L1043.39 465.833C1039.99 471.238 1035 479.093 1028.54 489.397L972.317 578.017L773.559 890.497L773.365 889.019L1062.78 1152.11L1061.35 1152.34L1337.18 720.28L1337.37 721.666L1127.7 530.288L1069.2 476.737L1053.72 462.598L1048.54 457.654L1053.8 462.275L1069.28 476.136L1127.78 529.133L1338.42 720.049L1339.07 720.65L1338.57 721.482L1063.01 1153.82L1062.39 1154.79L1061.58 1154.05L772.321 890.682L771.624 890.035L772.166 889.157L972.007 576.769L1028.5 488.658L1043.43 465.555L1047.3 459.641L1048.54 457.654Z" fill="#263238"/>
<path d="M1056.89 489.724L800.549 891.56L1053.48 1121.66L1309.82 719.822L1056.89 489.724Z" fill="#263238"/>
<path d="M1053.49 1126.37L985.781 843L1139.62 845.542L1124.64 738.717L1309.82 724.532L1053.49 1126.37Z" fill="#455A64"/>
<path d="M1029.88 767.87C1048.11 764.9 1060.87 744.844 1058.39 723.075C1055.9 701.306 1039.11 686.066 1020.88 689.037C1002.65 692.007 989.885 712.063 992.372 733.832C994.859 755.601 1011.65 770.841 1029.88 767.87Z" fill="#455A64"/>
<path d="M1109.81 452.973L1088.97 1057.04L1721.69 1088.18L1742.54 484.113L1109.81 452.973Z" fill="white"/>
<path d="M1742.39 483.991H1739.38L1730.55 483.621L1696.23 482.05L1566.77 475.998L1109.63 454.051L1110.56 453.034C1104.41 632.815 1097.33 838.933 1089.86 1057.06L1088.89 1055.82L1721.77 1087.05L1720.92 1088.02C1727.38 905.976 1732.72 755.072 1736.4 649.68C1738.33 596.915 1739.84 555.515 1740.85 527.331C1741.39 513.238 1741.77 502.427 1742.05 494.988C1742.32 487.549 1742.51 483.899 1742.51 483.899C1742.51 483.899 1742.51 487.549 1742.24 494.803C1741.97 502.057 1741.66 512.823 1741.23 526.822C1740.3 555.007 1738.95 596.129 1737.36 648.987C1733.84 754.564 1728.77 905.699 1722.66 1087.93V1088.9H1721.77L1088.82 1058.17H1087.81V1056.97C1095.36 838.841 1102.51 632.723 1108.74 452.942V451.879H1109.63L1567.31 474.981L1696.54 481.635L1730.67 483.437L1739.41 483.899L1742.39 483.991Z" fill="#263238"/>
<path d="M1130.29 492.06L1112.06 1020.1L1700.33 1049.05L1718.56 521.012L1130.29 492.06Z" fill="#455A64"/>
<path d="M1111.99 1020.01L1328.74 701.891L1448.96 913.507L1539.07 807.976L1700.26 1048.93L1111.99 1020.01Z" fill="#263238"/>
<path d="M1510.33 680.445C1515.93 650.615 1500.23 621.011 1475.25 614.321C1450.27 607.632 1425.48 626.39 1419.87 656.22C1414.27 686.05 1429.98 715.654 1454.96 722.344C1479.94 729.034 1504.73 710.275 1510.33 680.445Z" fill="#263238"/>
<path d="M1773.04 743.66L915.943 884.584L1006.71 1634.2L1856.77 1491.2L1773.04 743.66Z" fill="#EBEBEB"/>
<path d="M1776.33 650.143L929.137 859.818L1062.08 1600.43L1902.11 1389.23L1776.33 650.143Z" fill="#E0E0E0"/>
<path d="M1701.5 567.019L885.376 909.948L1099.92 1622.74L1908.84 1279.44L1701.5 567.019Z" fill="white"/>
<path d="M1701.5 567.019C1703.74 574.688 1783.56 847.71 1909.62 1279.12L1909.89 1280.05L1909.11 1280.37L1100.46 1623.85L1099.5 1624.27L1099.19 1623.11L1097.6 1617.94C1021.26 1364.14 948.87 1123.55 884.797 910.317L884.487 909.255L885.339 908.931L1701.73 567.019L885.687 910.964L886.228 909.578L1099.3 1617.11L1100.89 1622.33L1099.57 1621.59L1908.57 1278.52L1908.07 1279.77C1782.94 847.941 1703.74 574.688 1701.5 567.019Z" fill="#263238"/>
<path d="M1724.52 1250.71C1722.93 1251.4 1683.74 1129.84 1636.96 979.209C1590.18 828.583 1553.46 705.91 1555.05 705.217C1556.64 704.524 1595.79 826.041 1642.61 976.714C1689.42 1127.39 1726.07 1249.92 1724.52 1250.71Z" fill="#263238"/>
<path d="M1654.8 1288.73C1653.25 1289.43 1614.01 1167.86 1567.24 1017.28C1520.46 866.702 1483.78 743.937 1485.33 743.244C1486.87 742.551 1526.11 864.115 1572.92 1014.74C1619.74 1165.37 1656.38 1288.04 1654.8 1288.73Z" fill="#263238"/>
<path d="M1438.39 1396.99C1436.85 1397.68 1397.61 1276.12 1350.84 1125.49C1304.06 974.867 1267.38 852.194 1268.93 851.501C1270.47 850.808 1309.71 972.326 1356.48 1123C1403.26 1273.67 1439.94 1396.3 1438.39 1396.99Z" fill="#263238"/>
<path d="M1507.38 1363.81C1505.8 1364.51 1466.6 1242.94 1419.82 1092.32C1373.04 941.691 1336.33 819.018 1337.91 818.325C1339.5 817.632 1378.65 939.15 1425.47 1089.82C1472.29 1240.5 1508.97 1363.12 1507.38 1363.81Z" fill="#263238"/>
<path d="M1576.33 1330.64C1574.78 1331.33 1535.59 1209.77 1488.77 1059.19C1441.95 908.609 1405.31 785.843 1406.86 785.15C1408.41 784.457 1447.64 906.021 1494.46 1056.65C1541.27 1207.27 1577.92 1329.95 1576.33 1330.64Z" fill="#263238"/>
<path d="M1358.5 1424.44C1356.95 1425.13 1317.72 1303.56 1270.94 1152.94C1224.16 1002.31 1187.48 879.639 1189.03 878.946C1190.58 878.253 1229.81 999.771 1276.63 1150.44C1323.44 1301.12 1360.08 1423.74 1358.5 1424.44Z" fill="#263238"/>
<path d="M1282.08 1457.84C1280.53 1458.53 1241.34 1336.97 1194.52 1186.39C1147.71 1035.81 1111.06 913.09 1112.61 912.628C1114.16 912.166 1153.39 1033.5 1200.21 1184.13C1247.03 1334.75 1283.67 1457.19 1282.08 1457.84Z" fill="#263238"/>
<path d="M1205.7 1491.34C1204.12 1492.03 1164.92 1370.47 1118.11 1219.89C1071.29 1069.31 1034.65 946.544 1036.23 945.851C1037.82 945.158 1076.98 1066.72 1123.79 1217.35C1170.61 1367.97 1207.17 1490.65 1205.7 1491.34Z" fill="#263238"/>
<path d="M746.165 1011.04L814.378 1692.97C814.963 1698.83 817.32 1704.22 821.004 1708.15C824.688 1712.07 829.446 1714.25 834.382 1714.27L1727.15 1717.51C1732.24 1717.54 1737.16 1715.27 1740.91 1711.16C1744.66 1707.05 1746.97 1701.39 1747.38 1695.33L1794.08 1013.82C1794.31 1010.49 1793.96 1007.15 1793.05 1004C1792.14 1000.84 1790.69 997.95 1788.81 995.495C1786.92 993.04 1784.62 991.077 1782.07 989.729C1779.52 988.382 1776.76 987.679 1773.97 987.664L766.323 984.014C763.458 984.003 760.623 984.718 758.007 986.114C755.391 987.509 753.052 989.552 751.147 992.107C749.241 994.662 747.811 997.672 746.953 1000.94C746.094 1004.2 745.825 1007.65 746.165 1011.04Z" fill="#FF9800"/>
<path d="M1838.46 820.868L1808.36 846.604L1825.93 949.64L1865.47 907.501L1838.46 820.868Z" fill="#BF7A62"/>
<path d="M1845.31 1595.81L1970.48 1523.17L2131.05 1546.28C2141.8 1555.95 2149.02 1570.2 2151.21 1586.06C2152.27 1591.18 2151.62 1596.61 2149.39 1601.17C2145.79 1607.17 2138.4 1607.91 2132.4 1606.16C2126.41 1604.4 2120.79 1600.66 2114.64 1599.78C2102.69 1598.12 2091.66 1607.22 2082.68 1616.78C2073.71 1626.35 2064.77 1637.25 2053.05 1640.49C2042.5 1642.55 2031.68 1640.13 2022.48 1633.65C2013.12 1627.83 2004.76 1619.79 1995.4 1613.55C1978.43 1601.31 1958.58 1596.04 1938.87 1598.53C1923.39 1600.98 1908.69 1609.11 1893.13 1612.07C1877.58 1615.03 1853.55 1611.75 1845.12 1595.9" fill="#455A64"/>
<path d="M2143.74 1892.4C2143.74 1892.4 2041.21 1474.94 2039.27 1461.59C2037.49 1449.53 2053.47 1157.05 2060.63 1081.19L1947.69 1082.29V1083.59L1894.02 1085.16L1918.01 1915.27L1987.46 1921.64L1987 1647.74C2030.8 1780.03 2081.6 1927.33 2081.6 1927.33L2143.74 1892.4Z" fill="#D89377"/>
<path d="M1941.23 1442.46C1941.23 1442.46 1941 1445.69 1940.76 1451.7C1940.36 1459.94 1940.47 1468.2 1941.07 1476.42C1941.93 1488.62 1943.62 1500.72 1946.14 1512.6C1949.47 1527.07 1953.55 1541.28 1958.37 1555.15C1967.89 1585.09 1976.4 1612.3 1982.43 1631.99C1985.3 1641.6 1987.7 1649.5 1989.48 1655.41C1990.42 1658.26 1991.2 1661.17 1991.8 1664.15C1990.58 1661.45 1989.53 1658.66 1988.66 1655.78C1986.73 1649.91 1984.1 1641.92 1980.93 1632.68C1974.5 1613.14 1965.76 1586.06 1956.24 1556.07C1953.88 1548.59 1951.56 1541.24 1949.35 1534.17C1947.28 1527.3 1945.52 1520.3 1944.09 1513.2C1941.65 1501.17 1940.1 1488.91 1939.45 1476.56C1939.01 1468.24 1939.14 1459.9 1939.84 1451.61C1940.11 1448.65 1940.42 1446.43 1940.69 1444.91C1940.74 1444.06 1940.93 1443.23 1941.23 1442.46V1442.46Z" fill="#BF7A62"/>
<path d="M1987.16 1747.36C1987.16 1744.82 1988.74 1654.44 1988.74 1654.44C1988.74 1654.44 1963.59 1570.58 1962.93 1573.12C1962.28 1575.66 1987.16 1747.36 1987.16 1747.36Z" fill="#BF7A62"/>
<path d="M1914.11 1914.99V1905.75L1987.62 1907.5L1987.23 1938.28L1982.71 1938.55C1962.47 1939.43 1879.71 1941.46 1866.24 1936.29C1851.58 1930.37 1914.11 1914.99 1914.11 1914.99Z" fill="#FF9800"/>
<g opacity="0.3">
<path d="M1961 1936.94C1962.19 1929.57 1965.62 1922.99 1970.63 1918.46C1975.54 1913.95 1981.69 1911.83 1987.85 1912.5L1987.5 1936.94H1961Z" fill="white"/>
</g>
<path opacity="0.3" d="M1883.54 1923.81C1883.54 1923.81 1861.56 1930.84 1864.19 1935.23C1866.82 1939.62 1950.55 1941.28 1987.5 1938.18V1936.24L1889.88 1935.23C1889.88 1935.23 1887.8 1924.09 1883.54 1923.81Z" fill="white"/>
<path d="M1988.74 1936.2C1988.32 1936.26 1987.89 1936.26 1987.46 1936.2H1983.87L1970.52 1936.61C1959.26 1936.84 1943.7 1936.98 1926.53 1936.61C1909.35 1936.24 1893.79 1935.55 1882.53 1934.86L1869.22 1933.93L1865.63 1933.61H1864.35H1865.63H1869.22L1882.57 1934.21C1893.83 1934.72 1909.35 1935.32 1926.53 1935.64C1943.7 1935.97 1959.26 1936.01 1970.52 1935.97H1983.87H1987.46L1988.74 1936.2Z" fill="#263238"/>
<path d="M1889.85 1936.57C1889.3 1933.92 1888.49 1931.36 1887.45 1928.94C1886.17 1926.68 1884.67 1924.61 1883 1922.75C1885.27 1923.78 1887.13 1925.79 1888.22 1928.39C1889.57 1930.79 1890.15 1933.7 1889.85 1936.57Z" fill="#263238"/>
<path d="M1911.67 1923.91C1911.44 1923.91 1910.43 1922.52 1909.39 1920.49C1908.64 1919.33 1908.12 1917.99 1907.88 1916.56C1908.11 1916.56 1909.11 1917.9 1910.16 1919.93C1910.91 1921.1 1911.43 1922.46 1911.67 1923.91V1923.91Z" fill="#263238"/>
<path d="M1917.63 1920.3C1917.63 1920.3 1916.35 1919.56 1915.07 1918.18C1913.8 1916.79 1912.98 1915.5 1913.14 1915.27C1913.29 1915.04 1914.45 1916.01 1915.69 1917.39C1916.93 1918.78 1917.82 1919.89 1917.63 1920.3Z" fill="#263238"/>
<path d="M1921.53 1912.13C1920.29 1912.61 1918.97 1912.77 1917.67 1912.59C1915.58 1912.59 1913.8 1912.36 1913.8 1912.03C1915.04 1911.53 1916.36 1911.35 1917.67 1911.52C1918.98 1911.36 1920.3 1911.57 1921.53 1912.13Z" fill="#263238"/>
<path d="M1922.97 1906.3C1921.64 1907.12 1920.18 1907.59 1918.69 1907.69C1917.19 1907.79 1915.7 1907.53 1914.3 1906.9C1915.73 1906.64 1917.18 1906.55 1918.63 1906.63C1920.07 1906.37 1921.52 1906.27 1922.97 1906.3V1906.3Z" fill="#263238"/>
<path d="M1909.27 1916.24C1907.72 1916.54 1906.14 1916.54 1904.59 1916.24C1902.88 1915.95 1901.19 1915.47 1899.56 1914.81C1898.57 1914.43 1897.63 1913.94 1896.73 1913.33C1896.18 1912.93 1895.77 1912.31 1895.57 1911.57C1895.52 1911.15 1895.56 1910.71 1895.69 1910.31C1895.83 1909.91 1896.06 1909.57 1896.35 1909.31C1898.16 1908.3 1900.22 1908.08 1902.16 1908.68C1904.1 1909.28 1905.8 1910.66 1906.99 1912.59C1907.68 1913.71 1908.18 1914.98 1908.46 1916.33C1908.46 1917.3 1908.46 1917.86 1908.46 1917.86C1908 1916.19 1907.31 1914.62 1906.41 1913.24C1905.39 1911.76 1904.05 1910.64 1902.54 1910C1901.63 1909.61 1900.66 1909.45 1899.7 1909.51C1898.74 1909.57 1897.79 1909.87 1896.93 1910.37C1896.15 1911.02 1896.42 1912.04 1897.27 1912.68C1898.1 1913.25 1898.97 1913.71 1899.87 1914.07C1901.44 1914.76 1903.06 1915.3 1904.7 1915.69C1907.49 1916.01 1909.27 1916.05 1909.27 1916.24Z" fill="#263238"/>
<path d="M1908.07 1916.47C1907.48 1915.29 1907.3 1913.88 1907.57 1912.54C1907.74 1911.08 1908.2 1909.68 1908.92 1908.48C1909.32 1907.66 1909.88 1906.98 1910.56 1906.5C1911.23 1906.01 1912 1905.74 1912.79 1905.7C1913.27 1905.84 1913.68 1906.18 1913.95 1906.68C1914.22 1907.17 1914.31 1907.76 1914.22 1908.34C1914.08 1909.23 1913.79 1910.08 1913.37 1910.83C1912.75 1912.07 1911.98 1913.19 1911.09 1914.16C1909.62 1915.87 1908.42 1916.51 1908.38 1916.38C1908.34 1916.24 1909.35 1915.41 1910.66 1913.65C1911.42 1912.62 1912.1 1911.51 1912.67 1910.32C1913.33 1909.12 1913.8 1907 1912.67 1906.72C1911.55 1906.44 1910.27 1907.97 1909.54 1909.08C1908.86 1910.14 1908.38 1911.37 1908.15 1912.68C1908.02 1913.94 1907.99 1915.21 1908.07 1916.47V1916.47Z" fill="#263238"/>
<path d="M1987.46 1912.22C1987.46 1912.22 1985.38 1911.94 1982.05 1912.22C1977.73 1912.7 1973.62 1914.62 1970.17 1917.76C1966.69 1920.93 1964.02 1925.18 1962.43 1930.05C1961.27 1933.79 1961.12 1936.34 1960.96 1936.29C1960.88 1935.71 1960.88 1935.11 1960.96 1934.53C1961.09 1932.96 1961.38 1931.41 1961.81 1929.91C1963.23 1924.78 1965.93 1920.28 1969.55 1917.02C1973.13 1913.76 1977.44 1911.85 1981.93 1911.52C1983.22 1911.45 1984.52 1911.53 1985.8 1911.75C1986.37 1911.79 1986.94 1911.94 1987.46 1912.22V1912.22Z" fill="#263238"/>
<path d="M1951.91 1928.2C1948.39 1929.1 1944.79 1929.46 1941.19 1929.27C1937.59 1929.41 1933.98 1928.99 1930.47 1928.02C1930.47 1927.7 1935.27 1928.02 1941.19 1928.02C1947.11 1928.02 1951.87 1927.88 1951.91 1928.2Z" fill="#263238"/>
<path d="M1966.26 1928.48C1966.26 1928.71 1965.84 1929.68 1965.33 1930.97C1964.83 1932.27 1964.56 1933.42 1964.29 1933.42C1964.02 1933.42 1963.94 1932.04 1964.52 1930.51C1965.1 1928.99 1966.11 1928.25 1966.26 1928.48Z" fill="#263238"/>
<path d="M1971.79 1920.53C1971.79 1920.76 1971.48 1921.64 1970.71 1922.57C1969.94 1923.49 1969.16 1924 1969.01 1923.81C1968.85 1923.63 1969.32 1922.71 1970.09 1921.78C1970.87 1920.86 1971.6 1920.35 1971.79 1920.53Z" fill="#263238"/>
<path d="M1979.57 1917.02C1979.57 1917.34 1978.57 1917.3 1977.48 1917.71C1976.4 1918.13 1975.62 1918.82 1975.43 1918.64C1975.24 1918.45 1975.86 1917.21 1977.21 1916.7C1978.57 1916.19 1979.69 1916.74 1979.57 1917.02Z" fill="#263238"/>
<path d="M1985.14 1915.27C1985.14 1915.54 1984.79 1916.01 1984.18 1916.24C1983.56 1916.47 1983.01 1916.52 1982.9 1916.24C1982.78 1915.96 1983.25 1915.54 1983.87 1915.27C1984.49 1914.99 1984.87 1915.27 1985.14 1915.27Z" fill="#263238"/>
<path d="M2081.6 1929.13L2078.27 1920.67L2144.82 1883.01L2156.04 1910.74L2152.17 1913.42C2134.38 1925.01 2061.06 1970.89 2047.09 1973.48C2031.3 1976.35 2081.6 1929.13 2081.6 1929.13Z" fill="#FF9800"/>
<g opacity="0.3">
<path d="M2131.9 1923.9C2130.21 1916.68 2130.81 1908.96 2133.6 1902.23C2136.33 1895.61 2141.04 1890.43 2146.8 1887.73L2155.62 1909.81L2131.9 1923.9Z" fill="white"/>
</g>
<path opacity="0.3" d="M2057.5 1953.43C2057.5 1953.43 2040.51 1971.45 2044.5 1973.9C2048.48 1976.35 2124.04 1933.33 2156 1910.88L2155.19 1909.17L2067.4 1960.27C2067.4 1960.27 2061.44 1951.44 2057.5 1953.43Z" fill="white"/>
<path d="M2156.2 1908.52C2155.86 1908.84 2155.5 1909.12 2155.11 1909.35L2151.94 1911.43L2140.33 1918.92C2130.35 1925.11 2116.46 1933.52 2100.95 1942.34C2085.43 1951.17 2071.27 1958.84 2060.94 1964.2L2048.52 1970.71L2045.15 1972.33L2043.95 1972.84C2044.31 1972.56 2044.68 1972.33 2045.08 1972.14L2048.36 1970.34L2060.51 1963.78C2070.77 1958.24 2084.89 1950.47 2100.4 1941.65C2115.92 1932.82 2129.81 1924.51 2139.87 1918.55L2151.79 1911.38L2155.04 1909.49C2155.41 1909.14 2155.79 1908.81 2156.2 1908.52V1908.52Z" fill="#263238"/>
<path d="M2067.9 1961.47C2066.46 1959.36 2064.8 1957.48 2062.95 1955.88C2060.95 1954.54 2058.84 1953.47 2056.64 1952.69C2059.06 1952.46 2061.47 1953.28 2063.42 1955C2065.55 1956.39 2067.16 1958.7 2067.9 1961.47V1961.47Z" fill="#263238"/>
<path d="M2082.72 1938.37C2081.52 1938.05 2080.4 1937.42 2079.43 1936.52C2077.73 1935.27 2076.46 1934.02 2076.61 1933.79C2076.76 1933.56 2078.2 1934.35 2079.9 1935.59C2081.6 1936.84 2082.84 1938.37 2082.72 1938.37Z" fill="#263238"/>
<path d="M2086.71 1932.13C2086.71 1932.41 2085.28 1932.13 2083.65 1931.58C2082.03 1931.02 2080.75 1930.33 2080.83 1930.05C2080.9 1929.77 2082.26 1930.05 2083.92 1930.56C2085.59 1931.07 2086.79 1931.81 2086.71 1932.13Z" fill="#263238"/>
<path d="M2087.13 1922.71C2087.13 1922.98 2085.78 1924.09 2083.88 1925.2C2082.78 1926.02 2081.54 1926.55 2080.25 1926.77C2080.25 1926.49 2081.6 1925.39 2083.5 1924.28C2084.61 1923.46 2085.84 1922.92 2087.13 1922.71Z" fill="#263238"/>
<path d="M2086.21 1916.79C2086.21 1916.79 2085.04 1918.87 2082.88 1920.35C2081.64 1921.39 2080.17 1921.96 2078.66 1921.97C2079.88 1920.97 2081.17 1920.12 2082.53 1919.43C2084.5 1918.04 2086.01 1916.56 2086.21 1916.79Z" fill="#263238"/>
<path d="M2077.73 1932.92C2076.45 1934.02 2075 1934.84 2073.48 1935.32C2071.84 1935.96 2070.15 1936.43 2068.45 1936.71C2067.42 1936.87 2066.38 1936.87 2065.35 1936.71C2064.71 1936.66 2064.11 1936.31 2063.69 1935.74C2063.49 1935.38 2063.38 1934.96 2063.38 1934.53C2063.38 1934.11 2063.49 1933.69 2063.69 1933.33C2064.94 1931.47 2066.7 1930.18 2068.65 1929.67C2070.61 1929.17 2072.66 1929.48 2074.44 1930.56C2075.49 1931.2 2076.41 1932.1 2077.15 1933.19C2077.69 1933.93 2077.89 1934.44 2077.81 1934.49C2076.77 1933.16 2075.54 1932.06 2074.17 1931.25C2072.68 1930.47 2071.03 1930.21 2069.41 1930.51C2068.45 1930.64 2067.52 1931 2066.68 1931.56C2065.84 1932.13 2065.09 1932.89 2064.5 1933.79C2064.07 1934.81 2064.69 1935.6 2065.66 1935.69C2066.62 1935.8 2067.6 1935.8 2068.56 1935.69C2070.22 1935.46 2071.86 1935.09 2073.48 1934.58C2076.03 1933.75 2077.73 1932.78 2077.73 1932.92Z" fill="#263238"/>
<path d="M2076.73 1933.75C2076.73 1933.75 2075.53 1932.92 2074.83 1930.51C2074.42 1929.11 2074.31 1927.6 2074.52 1926.12C2074.56 1925.16 2074.81 1924.23 2075.24 1923.42C2075.68 1922.61 2076.28 1921.95 2077 1921.5C2077.47 1921.36 2077.97 1921.45 2078.39 1921.74C2078.81 1922.04 2079.11 1922.51 2079.24 1923.08C2079.49 1923.94 2079.56 1924.86 2079.43 1925.75C2079.33 1927.21 2079.07 1928.64 2078.66 1930.01C2078.38 1931.3 2077.82 1932.48 2077.04 1933.42C2077.04 1933.42 2077.54 1932.04 2078.04 1929.77C2078.35 1928.45 2078.55 1927.08 2078.62 1925.71C2078.62 1924.28 2078.39 1922.15 2077.23 1922.52C2076.07 1922.89 2075.56 1924.88 2075.29 1926.26C2075.05 1927.57 2075.05 1928.93 2075.29 1930.24C2075.66 1931.47 2076.14 1932.65 2076.73 1933.75V1933.75Z" fill="#263238"/>
<path d="M2146.22 1887.54C2146.22 1887.54 2144.24 1888.42 2141.42 1890.55C2137.74 1893.31 2134.77 1897.22 2132.83 1901.87C2130.98 1906.56 2130.23 1911.77 2130.66 1916.93C2131.01 1920.86 2131.82 1923.21 2131.67 1923.26C2131.37 1922.79 2131.14 1922.26 2131.01 1921.69C2130.58 1920.18 2130.26 1918.64 2130.04 1917.07C2129.26 1910.93 2130.3 1904.66 2132.99 1899.34C2135.67 1894.02 2139.83 1889.99 2144.75 1887.96C2145.21 1887.73 2145.71 1887.59 2146.22 1887.54Z" fill="#263238"/>
<path d="M2120.29 1920.95C2117.48 1923.64 2114.39 1925.88 2111.08 1927.6C2107.93 1929.67 2104.56 1931.23 2101.06 1932.22C2101.06 1931.94 2105.4 1929.82 2110.7 1926.68C2116 1923.54 2120.29 1920.67 2120.29 1920.95Z" fill="#263238"/>
<path d="M2133.29 1913.56C2133.52 1913.56 2133.29 1914.85 2133.29 1916.28C2133.29 1917.71 2133.52 1918.92 2133.29 1919.01C2133.06 1919.1 2132.48 1917.95 2132.44 1916.28C2132.4 1914.62 2133.06 1913.42 2133.29 1913.56Z" fill="#263238"/>
<path d="M2135.27 1903.49C2135.5 1903.49 2135.27 1904.64 2135.27 1905.89C2135.27 1907.14 2134.41 1908.01 2134.18 1907.92C2133.95 1907.83 2134.18 1906.77 2134.41 1905.52C2134.65 1904.27 2135.03 1903.39 2135.27 1903.49Z" fill="#263238"/>
<path d="M2140.95 1896.18C2140.95 1896.51 2140.14 1896.97 2139.33 1897.94C2138.52 1898.91 2138.05 1899.93 2137.82 1899.83C2137.59 1899.74 2137.82 1898.36 2138.71 1897.2C2139.6 1896.05 2140.91 1895.91 2140.95 1896.18Z" fill="#263238"/>
<path d="M2145.29 1891.79C2145.29 1891.79 2145.29 1892.63 2144.82 1893.18C2144.36 1893.74 2143.86 1894.06 2143.7 1893.83C2143.55 1893.6 2143.7 1893.04 2144.16 1892.44C2144.63 1891.84 2145.13 1891.61 2145.29 1891.79Z" fill="#263238"/>
<path d="M2057.61 1057.67C2026.66 993.904 2018.92 1001.34 2029.37 964.194L2059.55 843.323L2046.78 767.548C2039.75 759.372 2031.35 753.063 2022.14 749.034C2012.92 745.005 2003.1 743.347 1993.31 744.169L1930.32 749.344C1930.32 749.344 1899.36 741.258 1853.63 794.208L1822.14 829.462L1861.95 919.699L1863.96 960.636L1892.67 1072.59L1884.93 1121.98C1881.6 1159.55 1839.31 1590.36 1845.04 1597.19C1850.77 1604.03 1939.22 1551.59 1960.57 1573.12C1981.93 1594.65 2024.92 1607.87 2049.18 1598.58C2073.44 1589.29 2109.81 1531.68 2146.53 1570.53C2146.6 1570.53 2134.61 1188.29 2057.61 1057.67Z" fill="#FF9800"/>
<path d="M2022.94 749.39C2022.94 749.39 2088.72 770.228 2078.85 826.181C2074.09 853.904 2042.64 911.105 2042.64 911.105L1968.27 869.105L2022.94 749.39Z" fill="#FF9800"/>
<path d="M1889.11 1095.55C1902.08 1082.16 1918.79 1075.08 1935.93 1075.68C1944.62 1076.06 1953.08 1079.06 1960.53 1084.42C1969.18 1090.6 1975.95 1099.91 1979.88 1110.98C1981.95 1117 1982.88 1123.48 1982.59 1129.97C1982.18 1136.73 1980.52 1143.29 1977.75 1149.2C1972.45 1161.35 1964.09 1171.47 1958.41 1183.85C1952.72 1196.23 1952.37 1210.42 1953.18 1223.63C1954 1236.85 1955.62 1250.11 1953.18 1262.49C1952.14 1268.51 1950.23 1274.26 1947.53 1279.49C1945.06 1284.58 1941.46 1288.75 1937.13 1291.55C1933.01 1294.11 1928.33 1295.06 1923.74 1294.28C1919.61 1293.46 1915.66 1291.65 1912.13 1288.96C1906.28 1284.21 1900.91 1278.64 1896.15 1272.38C1892.37 1267.97 1888.39 1263.8 1884.24 1259.9C1881.62 1257.41 1878.85 1255.16 1875.95 1253.16C1873.98 1251.77 1872.86 1251.17 1872.9 1251.08C1872.94 1250.98 1873.21 1251.08 1873.75 1251.4C1874.29 1251.72 1875.14 1252.09 1876.15 1252.69C1879.14 1254.56 1882 1256.71 1884.7 1259.12C1888.96 1262.95 1893.04 1267.05 1896.93 1271.41C1901.71 1277.49 1907.06 1282.9 1912.87 1287.53C1916.27 1290.04 1920.06 1291.7 1924.01 1292.43C1928.27 1293.11 1932.59 1292.19 1936.39 1289.8C1940.43 1287.12 1943.78 1283.17 1946.06 1278.38C1948.62 1273.34 1950.43 1267.81 1951.4 1262.03C1953.76 1250.15 1952.06 1237.17 1951.4 1223.82C1950.88 1216.93 1950.88 1210 1951.4 1203.12C1952.05 1195.96 1953.86 1189.02 1956.74 1182.69C1962.51 1169.9 1970.83 1159.87 1976.09 1148.13C1978.77 1142.46 1980.37 1136.15 1980.77 1129.65C1981.06 1123.5 1980.2 1117.34 1978.26 1111.63C1974.56 1100.96 1968.12 1091.97 1959.88 1085.94C1952.7 1080.66 1944.51 1077.65 1936.08 1077.21C1923.8 1076.29 1911.56 1079.63 1900.83 1086.82C1897.89 1088.72 1895.04 1090.8 1892.28 1093.06L1890.12 1094.86C1889.42 1095.41 1889.15 1095.6 1889.11 1095.55Z" fill="#FAFAFA"/>
<path d="M2138.86 1453.82L2137.86 1454.15L2134.84 1454.75C2132.17 1455.25 2128.26 1455.99 2123.23 1456.78C2108.94 1459.36 2094.5 1460.54 2080.05 1460.29C2070.05 1460.1 2060.09 1458.55 2050.38 1455.67C2039.17 1452.35 2028.53 1446.71 2018.96 1438.99C2008.25 1430.49 1999.74 1418.58 1994.39 1404.61C1988.73 1389.45 1987.57 1372.43 1991.1 1356.38C1993.04 1348.28 1996.47 1340.8 2001.12 1334.48C2005.76 1328.66 2010.79 1323.31 2016.17 1318.49C2021.27 1313.93 2025.93 1308.71 2030.06 1302.92C2033.79 1297.22 2036.36 1290.56 2037.57 1283.47C2040.05 1269.6 2038.88 1255.74 2039.43 1242.9C2039.39 1230.82 2041.92 1218.93 2046.78 1208.34C2050.91 1199.71 2056.53 1192.23 2063.26 1186.39C2068.3 1181.96 2073.9 1178.52 2079.86 1176.23C2083.62 1174.76 2087.52 1173.83 2091.47 1173.45H2094.52H2095.57C2090.3 1173.93 2085.1 1175.19 2080.09 1177.2C2074.27 1179.6 2068.82 1183.09 2063.92 1187.55C2056.67 1193.94 2050.8 1202.3 2046.8 1211.94C2042.81 1221.59 2040.79 1232.23 2040.94 1242.99C2040.47 1255.7 2041.75 1269.56 2039.23 1283.97C2038.03 1291.4 2035.38 1298.38 2031.49 1304.35C2027.3 1310.32 2022.55 1315.69 2017.33 1320.38C2012.04 1325.13 2007.08 1330.4 2002.52 1336.14C1998.09 1342.2 1994.83 1349.34 1992.96 1357.07C1989.55 1372.59 1990.67 1389.03 1996.13 1403.69C2001.29 1417.32 2009.55 1428.94 2019.96 1437.23C2029.33 1444.85 2039.74 1450.44 2050.72 1453.78C2060.3 1456.75 2070.12 1458.44 2080.01 1458.81C2094.39 1459.17 2108.77 1458.26 2123.04 1456.09L2134.65 1454.51L2137.66 1454.1L2138.86 1453.82Z" fill="#FAFAFA"/>
<path d="M1954.42 1569.33C1954.83 1568.89 1955.29 1568.5 1955.78 1568.18C1957.18 1567.34 1958.48 1566.28 1959.64 1565.04C1961 1563.42 1960.46 1560.42 1959.64 1557.14C1958.49 1553.53 1957.06 1550.05 1955.39 1546.74C1951.87 1539.12 1947.65 1530.06 1942.62 1520.36C1937.2 1509.81 1930.7 1500.11 1923.27 1491.48C1915.87 1482.87 1906.98 1476.28 1897.24 1472.17C1889.3 1468.82 1880.8 1467.85 1872.47 1469.35C1866.87 1470.5 1861.57 1473.2 1857 1477.25C1853.78 1480.16 1852.28 1482.19 1852.12 1481.87C1852.4 1481.29 1852.73 1480.76 1853.13 1480.3C1854.18 1478.89 1855.32 1477.58 1856.53 1476.37C1861.05 1471.9 1866.44 1468.86 1872.2 1467.54C1880.77 1465.73 1889.58 1466.54 1897.82 1469.9C1907.87 1474.01 1917.05 1480.73 1924.67 1489.58C1932.23 1498.35 1938.8 1508.26 1944.21 1519.06C1949.28 1528.86 1953.26 1538.1 1956.67 1545.77C1958.23 1549.22 1959.53 1552.84 1960.53 1556.58C1960.95 1558.17 1961.21 1559.82 1961.31 1561.48C1961.36 1562.22 1961.28 1562.96 1961.07 1563.66C1960.86 1564.36 1960.54 1565 1960.11 1565.54C1958.89 1566.78 1957.5 1567.76 1956.01 1568.46C1955 1569.15 1954.46 1569.43 1954.42 1569.33Z" fill="#FAFAFA"/>
<path d="M2039.04 1026.11C2039.04 1026.11 2038.58 1027.22 2037.18 1028.51C2035.15 1030.3 2032.81 1031.54 2030.33 1032.11C2026.63 1032.97 2022.8 1032.59 2019.27 1031.01C2014.96 1028.97 2011.25 1025.47 2008.59 1020.93C2003.95 1012.7 2001.94 1002.74 2002.94 992.887C2003.07 988.866 2003.8 984.906 2005.11 981.197C2005.46 981.197 2004.6 985.818 2004.37 992.979C2003.82 1002.35 2005.87 1011.67 2010.21 1019.5C2012.67 1023.59 2016.04 1026.79 2019.93 1028.74C2023.15 1030.29 2026.66 1030.81 2030.1 1030.27C2033.29 1029.61 2036.33 1028.2 2039.04 1026.11V1026.11Z" fill="#FAFAFA"/>
<path d="M2044.65 893.225C2044.65 893.225 2044.15 893.225 2043.14 893.641C2041.67 893.799 2040.2 893.799 2038.73 893.641C2033.26 893.143 2028.03 890.786 2023.64 886.849C2020.58 884.14 2018.04 880.692 2016.17 876.73C2014.04 872.14 2012.84 867.009 2012.69 861.76C2012.45 855.951 2013.45 850.162 2015.59 844.942C2018.13 839.632 2021.28 834.779 2024.96 830.526C2026.62 828.363 2028.03 825.938 2029.14 823.318C2030.16 820.86 2030.55 818.094 2030.26 815.371C2029.07 810.091 2027.16 805.08 2024.61 800.539C2022.57 796.224 2021.66 791.284 2021.98 786.347C2022.31 781.41 2023.85 776.7 2026.43 772.816C2028.18 770.276 2030.35 768.193 2032.81 766.699C2035.26 765.205 2037.95 764.33 2040.7 764.13C2042.18 764.012 2043.66 764.121 2045.11 764.453C2045.63 764.511 2046.13 764.684 2046.59 764.962C2046.59 765.239 2044.5 764.546 2040.78 764.962C2038.16 765.335 2035.63 766.328 2033.34 767.883C2031.05 769.438 2029.04 771.524 2027.43 774.018C2025.1 777.661 2023.74 782.049 2023.5 786.624C2023.27 791.198 2024.18 795.752 2026.12 799.707C2028.85 804.434 2030.87 809.685 2032.11 815.232C2032.44 818.395 2032 821.603 2030.84 824.473C2029.65 827.299 2028.14 829.912 2026.35 832.235C2022.81 836.363 2019.75 841.022 2017.22 846.097C2015.24 850.969 2014.28 856.346 2014.43 861.76C2014.51 866.364 2015.45 870.89 2017.17 875.012C2018.89 879.134 2021.35 882.751 2024.38 885.601C2028.53 889.468 2033.47 891.955 2038.69 892.809C2042.52 893.364 2044.65 892.994 2044.65 893.225Z" fill="#FAFAFA"/>
<path d="M1867.1 937.673C1869.16 937.976 1871.24 938.1 1873.32 938.042C1878.97 937.706 1884.34 935.045 1888.53 930.511C1891.52 927.131 1893.7 922.848 1894.82 918.115C1895.95 913.382 1895.98 908.373 1894.91 903.62C1893.67 897.96 1890.96 892.914 1887.18 889.204C1882.79 885.246 1878.95 880.491 1875.8 875.112C1873.23 869.119 1872.33 862.308 1873.21 855.66C1873.79 849.33 1875.03 843.462 1875.84 837.871C1876.77 832.666 1877.04 827.325 1876.65 822.023C1876.28 817.452 1874.82 813.105 1872.43 809.502C1868.91 804.241 1863.88 800.733 1858.31 799.66C1856.24 799.383 1854.16 799.29 1852.08 799.383C1852.08 799.383 1852.59 799.152 1853.67 798.875C1855.24 798.645 1856.82 798.645 1858.39 798.875C1864.31 799.637 1869.75 803.116 1873.56 808.578C1876.19 812.366 1877.85 816.99 1878.32 821.885C1878.8 827.391 1878.58 832.954 1877.66 838.379C1876.88 844.109 1875.68 849.931 1875.18 856.03C1874.36 862.183 1875.19 868.488 1877.54 874.049C1880.62 879.186 1884.33 883.748 1888.53 887.587C1892.51 891.669 1895.34 897.125 1896.62 903.204C1897.72 908.32 1897.62 913.697 1896.35 918.755C1895.07 923.812 1892.66 928.357 1889.38 931.897C1884.91 936.543 1879.18 939.102 1873.25 939.105C1871.66 939.137 1870.07 938.935 1868.53 938.505C1867.6 937.996 1867.06 937.765 1867.1 937.673Z" fill="#FAFAFA"/>
<path d="M1962.47 517.583C1969.07 516.012 1975.88 516.145 1982.43 517.974C1988.99 519.803 1995.14 523.285 2000.47 528.186C2005.81 533.087 2010.21 539.294 2013.37 546.391C2016.53 553.487 2018.38 561.309 2018.8 569.332C2019.27 578.157 2018.34 588.368 2023.56 594.652C2027.43 599.272 2032.93 600.012 2037.53 603.015C2041.83 605.986 2045.13 610.66 2046.86 616.228C2048.58 621.797 2048.62 627.91 2046.97 633.51C2045.19 639.008 2041.79 643.675 2040.05 649.219C2037.49 657.397 2035.36 666.777 2037.45 675.14C2048.21 719.034 2021.98 724.394 2008.28 727.351C1988.7 731.463 1968.85 724.024 1966.84 699.628C1966.18 691.727 1954.38 692.605 1947.81 693.622C1940.07 694.869 1933.99 702.863 1928.19 709.285C1919.4 719.974 1908.27 727.499 1896.07 731.001C1889.98 732.671 1883.64 732.524 1877.61 730.574C1871.58 728.624 1866.04 724.931 1861.48 719.82C1852.82 709.146 1850.69 690.803 1858.31 679.067C1853.66 676.535 1849.54 672.778 1846.28 668.078C1843.01 663.378 1840.68 657.857 1839.46 651.927C1838.23 645.998 1838.15 639.815 1839.21 633.84C1840.27 627.866 1842.45 622.256 1845.58 617.431C1850.34 610.084 1857.19 604.632 1860.63 596.269C1863.5 589.246 1866.59 573.167 1868.84 565.728C1872.01 555.239 1882.84 537.266 1891.24 532.368" fill="#455A64"/>
<path d="M1997.25 757.291L1924.59 758.538C1923.35 748.512 1920.91 709.561 1920.91 709.561C1920.91 709.561 1890.46 707.344 1887.25 671.581C1884.04 635.819 1882.76 552.928 1882.76 552.928C1899.13 542.268 1917.57 537.012 1936.2 537.703C1954.83 538.393 1972.97 545.005 1988.74 556.856L1993.5 560.414L1997.25 757.291Z" fill="#D89377"/>
<path d="M1918.48 648.248C1916.27 647.443 1913.97 647.114 1911.67 647.278C1910.58 647.278 1909.69 647.278 1909.58 646.4C1909.43 645.11 1909.59 643.796 1910.04 642.611L1912.52 632.215C1915.92 617.43 1918.17 605.278 1917.51 605.093C1916.85 604.908 1913.64 616.69 1910.24 631.476C1909.46 635.08 1908.69 638.545 1907.95 641.918C1907.44 643.684 1907.44 645.604 1907.95 647.37C1908.15 647.842 1908.43 648.254 1908.78 648.575C1909.13 648.895 1909.53 649.116 1909.96 649.218C1910.58 649.307 1911.21 649.307 1911.82 649.218C1914.07 649.313 1916.31 648.985 1918.48 648.248Z" fill="#263238"/>
<path d="M1920.8 709.053C1934.68 707.785 1947.93 701.626 1958.87 691.356C1958.87 691.356 1951.67 718.201 1921.46 718.34L1920.8 709.053Z" fill="#BF7A62"/>
<path d="M1941.07 610.824C1941.07 612.049 1940.67 613.225 1939.94 614.091C1939.21 614.958 1938.23 615.444 1937.2 615.444C1936.72 615.482 1936.23 615.402 1935.77 615.209C1935.31 615.016 1934.88 614.715 1934.52 614.322C1934.16 613.93 1933.87 613.455 1933.67 612.925C1933.46 612.396 1933.35 611.822 1933.33 611.24C1933.33 610.014 1933.74 608.839 1934.47 607.973C1935.19 607.106 1936.18 606.619 1937.2 606.619C1937.69 606.582 1938.18 606.662 1938.64 606.855C1939.1 607.047 1939.52 607.349 1939.89 607.741C1940.25 608.134 1940.54 608.609 1940.74 609.138C1940.95 609.668 1941.06 610.241 1941.07 610.824V610.824Z" fill="#263238"/>
<path d="M1947.3 605.923C1946.84 606.478 1944.01 603.89 1939.91 603.798C1935.81 603.705 1932.79 606.062 1932.17 605.461C1931.56 604.861 1932.48 604.121 1933.8 603.012C1935.6 601.598 1937.72 600.873 1939.87 600.933C1942 600.973 1944.07 601.832 1945.76 603.382C1947.15 604.583 1947.53 605.646 1947.3 605.923Z" fill="#263238"/>
<path d="M1899.17 610.684C1899.17 611.909 1898.76 613.084 1898.04 613.951C1897.31 614.817 1896.33 615.304 1895.3 615.304C1894.82 615.348 1894.33 615.274 1893.87 615.087C1893.41 614.899 1892.98 614.602 1892.62 614.214C1892.26 613.825 1891.97 613.353 1891.76 612.825C1891.56 612.298 1891.45 611.727 1891.43 611.146C1891.43 609.92 1891.84 608.745 1892.56 607.879C1893.29 607.012 1894.27 606.525 1895.3 606.525C1896.26 606.52 1897.19 606.943 1897.91 607.712C1898.62 608.48 1899.07 609.54 1899.17 610.684V610.684Z" fill="#263238"/>
<path d="M1904.59 606.664C1904.12 607.218 1901.3 604.631 1897.2 604.539C1893.1 604.446 1890.08 606.803 1889.46 606.202C1888.84 605.601 1889.77 604.862 1891.08 603.753C1892.89 602.355 1895.01 601.646 1897.16 601.72C1899.28 601.747 1901.35 602.589 1903.04 604.123C1904.43 605.324 1904.86 606.387 1904.59 606.664Z" fill="#263238"/>
<path d="M1925.36 660.816C1924.95 659.675 1924.73 658.452 1924.71 657.212C1924.71 656.585 1924.87 655.973 1925.16 655.449C1925.44 654.925 1925.85 654.51 1926.33 654.254C1927.03 653.977 1927.88 654.254 1928.5 653.654C1929.12 653.053 1929.35 651.528 1929.85 650.42C1930.22 649.713 1930.77 649.164 1931.41 648.849C1932.06 648.534 1932.77 648.469 1933.45 648.664C1934.79 649.123 1936 650.019 1936.93 651.251C1938.15 652.533 1938.92 654.313 1939.1 656.241C1939.05 657.167 1938.82 658.066 1938.44 658.869C1938.05 659.671 1937.5 660.353 1936.86 660.862C1935.52 661.89 1933.99 662.523 1932.41 662.71C1930.72 663.018 1929 663.096 1927.3 662.941C1926.81 662.928 1926.32 662.802 1925.87 662.571C1925.64 662.443 1925.46 662.238 1925.34 661.982C1925.21 661.727 1925.15 661.433 1925.17 661.139" fill="#BF7A62"/>
<path d="M1922.39 661.557C1925.76 661.072 1928.96 659.535 1931.68 657.102C1934.4 654.669 1936.53 651.425 1937.86 647.695" fill="#BF7A62"/>
<path d="M1937.98 647.694C1937.22 651.835 1935.24 655.512 1932.39 658.056C1929.55 660.6 1926.04 661.842 1922.5 661.555C1925.52 660.002 1928.44 658.196 1931.25 656.149C1935.5 652.36 1937.44 647.37 1937.98 647.694Z" fill="#263238"/>
<path d="M1889.77 593.449C1893.27 591.476 1897.21 590.94 1900.99 591.924Z" fill="#BF7A62"/>
<path d="M1900.99 591.925C1900.68 593.265 1898.24 593.588 1895.49 593.958C1892.75 594.327 1890.31 594.605 1889.77 593.449C1889.23 592.294 1891.43 589.661 1895.07 589.199C1898.71 588.737 1901.3 590.677 1900.99 591.925Z" fill="#263238"/>
<path d="M1931.9 593.82C1937.11 591.735 1942.79 592.115 1947.77 594.883Z" fill="#BF7A62"/>
<path d="M1947.77 594.836C1947.23 596.037 1943.9 595.113 1939.8 594.836C1935.7 594.559 1932.33 594.836 1932.06 593.727C1931.79 592.618 1935.15 589.661 1940.18 590.031C1945.21 590.4 1948.31 593.82 1947.77 594.836Z" fill="#263238"/>
<path d="M1948.54 516.889C1946.39 513.936 1943.76 511.54 1940.8 509.847C1937.85 508.155 1934.64 507.202 1931.36 507.047C1921.5 505.878 1911.55 507.824 1902.51 512.689C1893.47 517.554 1885.66 525.168 1879.86 534.77C1873.25 546.136 1869.92 561.984 1875.99 573.674C1878.08 577.601 1881.07 580.727 1884.6 582.68C1888.13 584.633 1892.06 585.329 1895.92 584.686C1899.78 584.043 1903.4 582.087 1906.35 579.053C1909.3 576.018 1911.45 572.034 1912.56 567.575C1912.62 570.261 1913.13 572.906 1914.05 575.355C1914.98 577.804 1916.31 580.008 1917.95 581.838C1919.6 583.669 1921.54 585.09 1923.65 586.017C1925.76 586.945 1928 587.361 1930.25 587.241C1932.5 587.122 1934.71 586.469 1936.74 585.32C1938.77 584.172 1940.6 582.551 1942.1 580.553C1943.61 578.554 1944.76 576.218 1945.5 573.681C1946.24 571.143 1946.55 568.455 1946.41 565.773C1948.27 573.14 1952.03 579.612 1957.17 584.255C1962.55 588.274 1971.02 587.304 1973.81 580.466C1977.21 585.086 1981.97 590.215 1987.08 588.69C1989.2 587.809 1991.03 586.123 1992.28 583.888C1993.53 581.652 1994.14 578.991 1994 576.308C1993.63 570.935 1992.11 565.765 1989.59 561.291C1979.69 540.684 1965.06 521.74 1945.83 515.503" fill="#455A64"/>
<path d="M1971.6 565.774C1976.08 575.291 1978.46 586.005 1978.54 596.92C1978.61 607.834 1976.37 618.594 1972.03 628.196C1968.79 633.915 1966.03 639.997 1963.78 646.355C1962.71 649.554 1962.47 653.067 1963.1 656.431C1963.73 659.795 1965.2 662.854 1967.31 665.206C1970.13 667.747 1974.46 669.041 1975.04 673.153C1975.17 675.262 1974.81 677.373 1974 679.252C1971.34 687.573 1971.01 696.703 1973.07 705.265C1974.46 710.902 1974.7 717.879 1985.95 723.747C1991.53 726.75 1994.58 731.833 2006.69 728.136C2027.9 721.622 2020.39 665.021 2018.3 639.008C2016.21 612.995 2006.15 566.56 1993.93 544.89" fill="#455A64"/>
<path d="M1923.24 743.244C1923.24 743.244 1901.26 841.243 1915.27 831.541C1929.27 821.838 1997.25 757.29 1997.25 757.29L1962.89 726.333L1923.24 743.244Z" fill="#D89377"/>
<path d="M1716.28 912.029C1713.84 902.418 1683.43 882.643 1688.03 877.329C1694.03 870.352 1718.98 899.692 1721.27 901.956C1723.55 904.22 1726.3 900.339 1724.17 898.399C1721.07 895.626 1689.35 865.455 1695.3 858.57C1698.56 854.735 1703.66 862.498 1703.66 862.498C1703.66 862.498 1731.52 893.408 1734.19 890.22C1736.86 887.032 1721.03 867.996 1715.31 862.128C1709.58 856.26 1709.62 850.669 1713.76 849.745C1716.62 849.098 1734.46 866.61 1739.99 872.848C1745.53 879.085 1760.5 895.534 1758.6 879.963C1758.6 879.732 1758.6 879.501 1758.6 879.224C1756.36 863.976 1758.87 851.501 1761.66 848.267C1762.33 847.653 1763.12 847.274 1763.96 847.173C1764.79 847.072 1765.64 847.253 1766.39 847.696C1767.14 848.139 1767.78 848.826 1768.22 849.678C1768.66 850.53 1768.9 851.514 1768.9 852.518C1769.03 853.264 1769.03 854.035 1768.9 854.782C1768.9 855.105 1768.9 855.567 1768.9 855.937C1768.71 861.24 1769 866.553 1769.75 871.785C1770.31 876.496 1771.54 881.058 1773.38 885.277C1775.55 889.897 1777.56 894.24 1779.3 897.613C1799.66 911.105 1858.16 946.682 1916.81 952.273C1927.38 953.289 1974.19 865.085 1974.19 865.085L2043.84 904.359C2027.61 940.803 2009.08 975.712 1988.39 1008.78C1929.27 1103.59 1745.76 944.973 1745.76 944.973L1744.06 943.956C1730.13 935.737 1716.59 926.605 1703.51 916.603C1687.72 903.296 1688.65 901.54 1690.24 899.554C1694.45 894.148 1718.71 921.593 1716.28 912.029Z" fill="#D89377"/>
<path d="M660.115 1927.6L659.767 1889.72L600.26 1890.09V1945.53L604.129 1945.81C620.534 1946.78 687.664 1949.41 698.613 1945.39C710.724 1940.87 660.115 1927.6 660.115 1927.6Z" fill="#455A64"/>
<path d="M599.486 1943.91H600.492H603.432L614.266 1944.42C623.397 1944.74 636.011 1945.02 649.939 1944.97C663.868 1944.93 676.521 1944.51 685.652 1944.09L696.447 1943.49L699.387 1943.26H700.393C700.059 1943.21 699.721 1943.21 699.387 1943.26H696.447L685.613 1943.54C676.482 1943.82 663.868 1944.14 649.939 1944.19C636.011 1944.23 623.397 1944.19 614.266 1943.91L603.432 1943.68H599.563L599.486 1943.91Z" fill="#263238"/>
<path d="M679.616 1945.43C680.068 1943.28 680.73 1941.21 681.589 1939.24C682.717 1937.42 684.016 1935.77 685.458 1934.3C683.581 1935.12 682.042 1936.77 681.164 1938.92C679.976 1940.78 679.423 1943.11 679.616 1945.43Z" fill="#263238"/>
<path d="M662.011 1934.9C662.205 1934.9 663.017 1933.79 663.869 1932.17C664.493 1931.24 664.929 1930.15 665.145 1928.99C665.145 1928.99 664.139 1930.05 663.288 1931.71C662.437 1933.38 661.857 1934.76 662.011 1934.9Z" fill="#263238"/>
<path d="M657.175 1931.9C657.175 1931.9 658.258 1931.3 659.264 1930.19C660.27 1929.08 661.005 1928.06 660.889 1927.88C660.773 1927.69 659.806 1928.43 658.8 1929.54C657.794 1930.65 657.059 1931.71 657.175 1931.9Z" fill="#263238"/>
<path d="M654.118 1925.2C655.113 1925.6 656.166 1925.76 657.213 1925.66C658.271 1925.8 659.341 1925.66 660.347 1925.25C659.346 1924.81 658.274 1924.65 657.213 1924.78C656.169 1924.65 655.112 1924.79 654.118 1925.2V1925.2Z" fill="#263238"/>
<path d="M653.073 1920.49C654.096 1921.28 655.297 1921.68 656.517 1921.64C657.736 1921.87 658.983 1921.67 660.115 1921.09C658.955 1920.83 657.773 1920.74 656.594 1920.81C655.433 1920.56 654.253 1920.45 653.073 1920.49V1920.49Z" fill="#263238"/>
<path d="M664.023 1928.67C665.299 1928.98 666.616 1928.98 667.892 1928.67C669.285 1928.47 670.659 1928.12 671.993 1927.6C672.8 1927.32 673.578 1926.93 674.315 1926.45C674.752 1926.11 675.08 1925.61 675.244 1925.02C675.303 1924.67 675.28 1924.32 675.177 1923.99C675.074 1923.66 674.896 1923.38 674.663 1923.17C673.198 1922.33 671.537 1922.13 669.96 1922.58C668.382 1923.04 666.983 1924.12 665.996 1925.66C665.409 1926.58 664.987 1927.63 664.758 1928.76C664.666 1929.15 664.666 1929.57 664.758 1929.96C665.113 1928.55 665.691 1927.23 666.461 1926.08C667.316 1924.87 668.445 1923.99 669.711 1923.54C670.451 1923.22 671.237 1923.09 672.021 1923.14C672.805 1923.2 673.573 1923.44 674.276 1923.86C674.895 1924.41 674.663 1925.25 673.967 1925.71C673.302 1926.19 672.586 1926.56 671.839 1926.82C670.586 1927.38 669.29 1927.8 667.969 1928.06C665.493 1928.53 664.023 1928.53 664.023 1928.67Z" fill="#263238"/>
<path d="M664.99 1929.13C665.471 1928.19 665.624 1927.06 665.416 1925.98C665.316 1924.79 664.956 1923.64 664.371 1922.66C664.047 1921.99 663.587 1921.42 663.032 1921.02C662.478 1920.61 661.847 1920.38 661.198 1920.35C660.815 1920.45 660.478 1920.72 660.255 1921.1C660.032 1921.49 659.941 1921.96 659.999 1922.43C660.093 1923.15 660.317 1923.85 660.657 1924.46C661.166 1925.47 661.777 1926.4 662.475 1927.23C663.073 1928.05 663.83 1928.69 664.681 1929.08C664.681 1929.08 663.907 1928.25 662.862 1926.82C662.236 1925.98 661.691 1925.07 661.237 1924.09C660.734 1923.12 660.347 1921.41 661.237 1921.18C662.127 1920.95 663.172 1922.2 663.752 1923.12C664.297 1923.99 664.667 1925.01 664.835 1926.08C664.979 1927.08 665.031 1928.11 664.99 1929.13V1929.13Z" fill="#263238"/>
<path d="M600.607 1924.51C600.607 1924.51 602.31 1924.51 605.018 1924.51C608.496 1924.98 611.792 1926.62 614.529 1929.22C617.266 1931.83 619.334 1935.3 620.495 1939.25C621.423 1942.3 621.501 1944.33 621.656 1944.28C621.718 1943.81 621.718 1943.32 621.656 1942.85C621.568 1941.56 621.347 1940.29 620.998 1939.06C619.918 1934.89 617.815 1931.21 614.962 1928.48C612.073 1925.8 608.588 1924.19 604.941 1923.86C603.861 1923.71 602.77 1923.71 601.691 1923.86C601.305 1924.01 600.94 1924.23 600.607 1924.51V1924.51Z" fill="#263238"/>
<path d="M606.682 1894.89C606.28 1899.74 606.124 1904.62 606.218 1909.49C606.032 1914.36 606.122 1919.24 606.489 1924.09C606.865 1919.24 607.007 1914.36 606.914 1909.49C607.077 1904.62 607 1899.75 606.682 1894.89Z" fill="#263238"/>
<path d="M629.356 1937.91C632.202 1938.64 635.112 1938.96 638.023 1938.88C640.944 1939.04 643.871 1938.75 646.728 1938C646.728 1937.72 642.859 1938 638.023 1938C633.186 1938 629.356 1937.63 629.356 1937.91Z" fill="#263238"/>
<path d="M617.671 1937.9C617.671 1937.9 618.019 1938.92 618.406 1939.98C618.793 1941.05 619.025 1941.97 619.219 1941.97C619.412 1941.97 619.528 1940.81 619.219 1939.61C618.909 1938.41 617.826 1937.76 617.671 1937.9Z" fill="#263238"/>
<path d="M613.26 1931.44C613.26 1931.44 613.531 1932.32 614.15 1933.05C614.769 1933.79 615.349 1934.26 615.504 1934.12C615.659 1933.98 615.272 1933.19 614.653 1932.45C614.034 1931.71 613.415 1931.25 613.26 1931.44Z" fill="#263238"/>
<path d="M606.992 1928.48C606.992 1928.71 607.804 1928.71 608.694 1929.08C609.584 1929.45 610.203 1929.96 610.358 1929.82C610.513 1929.68 610.01 1928.67 608.926 1928.25C607.843 1927.83 606.914 1928.25 606.992 1928.48Z" fill="#263238"/>
<path d="M602.503 1927.09C602.503 1927.32 602.774 1927.69 603.277 1927.92C603.78 1928.16 604.206 1927.92 604.283 1927.92C604.361 1927.92 604.012 1927.32 603.509 1927.09C603.006 1926.86 602.581 1926.86 602.503 1927.09Z" fill="#263238"/>
<path d="M313.827 1872.94L330.657 1840.6L280.358 1802.66L255.364 1849.56L258.343 1852.15C271.73 1863.52 327.059 1908.93 338.086 1912.58C350.467 1916.65 313.827 1872.94 313.827 1872.94Z" fill="#455A64"/>
<path d="M255.364 1847.62L256.176 1848.4L258.575 1850.44L267.436 1857.83C275.174 1863.98 285.504 1872.34 297.267 1881.26C309.029 1890.17 319.824 1897.98 327.717 1903.48L337.08 1909.95L339.672 1911.66C340.253 1912.03 340.562 1912.21 340.601 1912.17L339.75 1911.47L337.235 1909.67L327.988 1902.97C320.249 1897.34 309.416 1889.43 297.654 1880.52C285.891 1871.6 275.329 1863.37 267.745 1857.41L258.73 1850.25L256.254 1848.36L255.364 1847.62Z" fill="#263238"/>
<path d="M322.223 1900.48C323.586 1898.99 325.077 1897.67 326.673 1896.55C328.386 1895.7 330.178 1895.09 332.012 1894.75C330.088 1894.25 328.077 1894.61 326.363 1895.77C324.53 1896.65 323.048 1898.33 322.223 1900.48V1900.48Z" fill="#263238"/>
<path d="M312.163 1880.29C312.163 1880.52 313.518 1880.01 314.949 1879.18C316.381 1878.35 317.542 1877.51 317.464 1877.28C316.465 1877.4 315.5 1877.78 314.64 1878.39C313.402 1879.22 312.086 1880.06 312.163 1880.29Z" fill="#263238"/>
<path d="M309.532 1874.65C309.532 1874.88 310.693 1874.65 312.047 1874.65C313.401 1874.65 314.485 1873.96 314.446 1873.73C314.407 1873.5 313.285 1873.73 311.931 1873.73C310.577 1873.73 309.532 1874.42 309.532 1874.65Z" fill="#263238"/>
<path d="M309.88 1867.03C309.88 1867.03 310.848 1868.27 312.279 1869.43C313.711 1870.59 314.988 1871.28 315.104 1871.05C315.22 1870.82 314.136 1869.8 312.705 1868.69C311.872 1867.9 310.91 1867.34 309.88 1867.03V1867.03Z" fill="#263238"/>
<path d="M311.119 1862.36C311.119 1862.36 311.892 1864.17 313.518 1865.6C314.424 1866.57 315.557 1867.2 316.768 1867.4C316.768 1867.17 315.491 1866.29 313.943 1864.9C313.057 1863.97 312.113 1863.12 311.119 1862.36V1862.36Z" fill="#263238"/>
<path d="M316.651 1876.31C317.585 1877.36 318.674 1878.19 319.863 1878.76C321.106 1879.46 322.402 1880.02 323.732 1880.43C324.537 1880.72 325.368 1880.91 326.208 1880.98C326.731 1881 327.242 1880.79 327.64 1880.38C327.836 1880.13 327.97 1879.82 328.025 1879.49C328.08 1879.15 328.053 1878.8 327.949 1878.49C327.107 1876.83 325.809 1875.57 324.278 1874.93C322.747 1874.29 321.077 1874.31 319.553 1874.97C318.647 1875.37 317.818 1875.98 317.116 1876.78C316.651 1877.33 316.458 1877.7 316.497 1877.75C317.452 1876.8 318.539 1876.07 319.708 1875.57C320.969 1875.12 322.316 1875.12 323.577 1875.57C324.373 1875.77 325.128 1876.15 325.793 1876.71C326.459 1877.27 327.022 1877.98 327.446 1878.81C327.717 1879.64 327.137 1880.19 326.324 1880.19C325.552 1880.13 324.787 1879.98 324.041 1879.73C322.722 1879.36 321.429 1878.86 320.172 1878.25C317.928 1877.15 316.69 1876.22 316.651 1876.31Z" fill="#263238"/>
<path d="M317.27 1877.15C317.27 1877.15 318.276 1876.59 319.05 1874.74C319.501 1873.67 319.714 1872.48 319.669 1871.28C319.694 1870.5 319.554 1869.73 319.263 1869.04C318.973 1868.34 318.54 1867.75 318.005 1867.31C317.636 1867.14 317.226 1867.15 316.864 1867.34C316.502 1867.53 316.218 1867.88 316.071 1868.32C315.815 1868.99 315.696 1869.72 315.723 1870.45C315.682 1871.63 315.774 1872.81 315.993 1873.96C316.137 1875.03 316.496 1876.05 317.038 1876.92C317.038 1876.92 316.729 1875.72 316.496 1873.82C316.394 1872.72 316.394 1871.6 316.496 1870.49C316.496 1869.34 316.961 1867.63 317.851 1868.09C318.741 1868.55 319.011 1870.17 319.127 1871.33C319.159 1872.41 319.015 1873.49 318.702 1874.51C318.289 1875.44 317.81 1876.32 317.27 1877.15V1877.15Z" fill="#263238"/>
<path d="M265.153 1832.1C265.153 1832.1 266.662 1833.02 268.751 1835.05C271.494 1837.7 273.569 1841.2 274.748 1845.17C275.885 1849.15 276.073 1853.42 275.29 1857.51C274.671 1860.7 273.858 1862.45 273.974 1862.55C274.224 1862.18 274.432 1861.78 274.594 1861.34C275.101 1860.18 275.503 1858.96 275.793 1857.69C276.731 1853.48 276.61 1849.03 275.445 1844.9C274.217 1840.78 272.012 1837.19 269.099 1834.55C268.217 1833.77 267.27 1833.11 266.275 1832.56C265.925 1832.33 265.546 1832.17 265.153 1832.1Z" fill="#263238"/>
<path d="M283.608 1810.98C281.07 1814.79 278.732 1818.79 276.605 1822.95C274.268 1826.94 272.149 1831.11 270.26 1835.42C272.782 1831.59 275.108 1827.58 277.224 1823.41C279.532 1819.4 281.663 1815.25 283.608 1810.98V1810.98Z" fill="#263238"/>
<path d="M283.299 1861.76C285.325 1864.26 287.629 1866.42 290.147 1868.18C292.533 1870.21 295.136 1871.84 297.885 1873.03C297.885 1872.8 294.558 1870.58 290.534 1867.44C286.51 1864.3 283.415 1861.57 283.299 1861.76Z" fill="#263238"/>
<path d="M273.433 1854.32C273.433 1854.32 273.433 1855.34 273.124 1856.49C272.814 1857.65 272.737 1858.57 273.124 1858.71C273.511 1858.85 273.898 1857.92 274.052 1856.63C274.207 1855.34 273.627 1854.23 273.433 1854.32Z" fill="#263238"/>
<path d="M272.659 1845.96C272.659 1845.96 272.659 1846.84 272.659 1847.9C272.659 1848.96 273.123 1849.7 273.317 1849.66C273.51 1849.61 273.549 1848.73 273.317 1847.71C273.085 1846.7 272.853 1845.96 272.659 1845.96Z" fill="#263238"/>
<path d="M268.674 1839.44C268.674 1839.67 269.293 1840.18 269.873 1841.06C270.454 1841.94 270.724 1842.77 270.918 1842.77C271.111 1842.77 271.15 1841.57 270.415 1840.51C269.68 1839.44 268.751 1839.21 268.674 1839.44Z" fill="#263238"/>
<path d="M265.54 1835.43C265.54 1835.43 265.54 1836.07 265.811 1836.58C266.082 1837.09 266.507 1837.37 266.662 1837.23C266.817 1837.09 266.662 1836.58 266.391 1836.07C266.12 1835.56 265.695 1835.24 265.54 1835.43Z" fill="#263238"/>
<path d="M544.195 1137.6C544.195 1137.6 594.494 1537.96 587.297 1557.27C580.101 1576.59 344.354 1886.02 344.354 1886.02L257.569 1817.31C257.569 1817.31 463.33 1507.74 461.782 1500.49C460.235 1493.23 383.819 1105.39 383.819 1105.39L544.195 1137.6Z" fill="#FF9800"/>
<path d="M355.149 1099.94L352.092 1114.77C343.151 1158.56 348.694 1204.79 367.569 1243.82L504.304 1527.15C514.022 1547.2 521.096 1568.93 525.275 1591.56L587.181 1918.68H682.479C682.479 1925.48 657.832 1649.17 645.451 1557.41C636.165 1488.1 558.589 1273.39 521.019 1171.93L544.234 1137.74L503.763 1129.79L355.149 1099.94Z" fill="#FF9800"/>
<path d="M523.882 1171.05C524.734 1172.48 525.435 1174.03 525.972 1175.67C527.21 1178.63 528.912 1182.97 530.963 1188.38C535.064 1199.14 540.442 1214.2 545.937 1231.02C551.431 1247.84 555.958 1263.37 559.053 1274.55C560.562 1280.18 561.761 1284.76 562.535 1287.95C563.03 1289.57 563.368 1291.26 563.541 1292.98C562.792 1291.54 562.207 1289.99 561.8 1288.36C560.678 1284.76 559.285 1280.37 557.699 1275.19C554.294 1264.1 549.535 1248.81 544.041 1231.99C538.546 1215.17 533.4 1200.07 529.647 1189.11C527.945 1184.03 526.475 1179.87 525.237 1176.13C524.582 1174.52 524.126 1172.81 523.882 1171.05Z" fill="#263238"/>
<path d="M535.103 1645.89C534.815 1644.86 534.608 1643.79 534.484 1642.71C534.135 1640.35 533.671 1637.3 533.129 1633.47C532.82 1631.43 532.51 1629.21 532.162 1626.81C531.814 1624.41 531.234 1621.78 530.692 1618.96C529.647 1613.37 528.564 1606.94 526.823 1599.97C526.01 1596.46 525.198 1592.81 524.308 1589.02L521.174 1577.23C519.162 1569.1 516.337 1560.65 513.436 1551.64C507.554 1533.8 500.397 1514.67 492.078 1494.81C477.501 1461.27 461.447 1428.68 443.984 1397.18C437.368 1385.26 431.99 1375.51 428.082 1368.53C426.302 1365.3 424.909 1362.71 423.787 1360.72C423.257 1359.83 422.791 1358.89 422.395 1357.9C423.05 1358.67 423.634 1359.52 424.136 1360.44L428.74 1367.97C432.609 1374.58 438.374 1384.19 445.184 1396.25C463.012 1427.55 479.265 1460.09 493.858 1493.7C502.215 1513.52 509.334 1532.88 515.177 1550.81C517.846 1560.05 520.632 1568.41 522.605 1576.63L525.623 1588.46C526.436 1592.34 527.248 1595.99 528.022 1599.55C529.647 1606.57 530.615 1613.04 531.582 1618.68C532.046 1621.51 532.472 1624.15 532.859 1626.58C533.168 1629.03 533.4 1631.2 533.671 1633.28C534.058 1637.12 534.406 1640.21 534.677 1642.52C534.921 1643.62 535.063 1644.76 535.103 1645.89V1645.89Z" fill="#263238"/>
<path d="M357.123 1869.47C355.787 1869.13 354.489 1868.6 353.254 1867.9C349.721 1866.25 346.272 1864.35 342.923 1862.22C331.916 1855.05 321.387 1846.88 311.428 1837.78C299.821 1827.34 289.142 1817.82 281.172 1811.53C273.201 1805.25 268.055 1801.74 268.21 1801.37C269.563 1801.86 270.863 1802.54 272.079 1803.4C274.517 1804.79 277.883 1807.1 281.984 1810.1C290.225 1816.06 300.982 1825.4 312.666 1835.84C322.551 1844.87 332.888 1853.17 343.62 1860.7C351.783 1866.33 357.239 1869.06 357.123 1869.47Z" fill="#263238"/>
<path d="M682.131 1901.4C680.845 1901.58 679.547 1901.58 678.262 1901.4H667.467L631.987 1901.08L596.468 1901.31H585.673C584.379 1901.39 583.081 1901.3 581.804 1901.03C583.059 1900.59 584.362 1900.35 585.673 1900.34C588.226 1900.11 591.902 1899.79 596.468 1899.56C605.522 1899 618.135 1898.54 632.025 1898.59C645.916 1898.63 658.49 1899.05 667.583 1899.65C672.11 1899.93 675.785 1900.2 678.339 1900.48C679.633 1900.57 680.909 1900.89 682.131 1901.4V1901.4Z" fill="#263238"/>
<path d="M417.868 691.264C409.489 692.62 400.96 691.014 393.337 686.643C389.563 684.441 386.367 681.046 384.095 676.826C381.824 672.607 380.564 667.724 380.453 662.71C380.453 656.842 382.736 651.066 381.924 645.291C381.111 639.515 377.513 634.895 375.191 629.72C372.433 623.113 371.65 615.578 372.973 608.366C374.297 601.154 377.646 594.701 382.465 590.076C387.534 585.456 394.073 583.053 398.251 577.37C403.281 570.67 404.094 560.967 407.15 552.743C409.421 546.819 412.872 541.649 417.202 537.686C421.532 533.723 426.61 531.088 431.99 530.011C437.949 528.902 444.139 529.687 449.827 527.423C454.525 524.999 458.956 521.895 463.021 518.182C476.482 507.791 492.82 504.124 508.522 507.971C515.402 509.422 521.791 513.189 526.939 518.829C532.472 525.39 539.591 532.69 541.603 541.469C543.963 552.096 541.061 565.403 538.701 575.984C536.341 586.565 529.183 596.268 520.052 597.561" fill="#263238"/>
<path d="M415.972 772.997L488.635 774.198C489.873 764.218 492.504 725.222 492.504 725.222C492.504 725.222 522.954 723.05 526.127 687.242C529.299 651.433 530.615 568.635 530.615 568.635C514.253 557.952 495.799 552.683 477.16 553.374C458.522 554.064 440.376 560.689 424.6 572.562L419.841 576.166L415.972 772.997Z" fill="#FFBE9D"/>
<path d="M494.748 663.909C496.974 663.163 499.287 662.851 501.596 662.985C502.68 662.985 503.531 662.754 503.686 662.061C503.797 660.782 503.623 659.491 503.183 658.318L500.707 647.922C498.303 639.083 496.631 629.983 495.715 620.754C498.866 629.254 501.303 638.107 502.989 647.183C503.802 650.787 504.537 654.206 505.272 657.625C505.804 659.371 505.804 661.285 505.272 663.031C505.077 663.511 504.789 663.928 504.433 664.25C504.076 664.571 503.661 664.787 503.221 664.879C502.606 664.99 501.98 664.99 501.364 664.879C499.128 665.015 496.89 664.687 494.748 663.909V663.909Z" fill="#263238"/>
<path d="M492.426 724.716C478.549 723.48 465.294 717.335 454.354 707.065C454.354 707.065 461.589 733.864 491.769 734.003L492.426 724.716Z" fill="#EB996E"/>
<path d="M420.074 613.826C419.454 613.503 399.528 609.621 400.728 637.945C401.927 666.268 425.413 655.549 425.452 654.717C425.49 653.885 420.074 613.826 420.074 613.826Z" fill="#FFBE9D"/>
<path d="M417.868 645.199C417.868 645.199 417.443 645.569 416.785 645.985C415.819 646.539 414.714 646.638 413.69 646.262C412.117 645.183 410.81 643.629 409.9 641.755C408.989 639.882 408.508 637.755 408.505 635.589C408.35 633.152 408.654 630.705 409.395 628.427C409.586 627.539 409.953 626.719 410.465 626.036C410.976 625.352 411.618 624.826 412.335 624.5C412.807 624.329 413.312 624.355 413.769 624.573C414.227 624.792 414.608 625.189 414.85 625.701C415.199 626.487 414.85 627.041 415.199 627.087C415.547 627.133 415.663 626.579 415.431 625.424C415.271 624.732 414.916 624.128 414.425 623.714C414.101 623.428 413.73 623.227 413.337 623.123C412.944 623.02 412.536 623.016 412.142 623.114C411.174 623.384 410.282 623.954 409.556 624.764C408.829 625.575 408.294 626.599 408.002 627.734C407.083 630.248 406.698 632.993 406.88 635.727C406.852 638.254 407.455 640.734 408.613 642.849C409.771 644.964 411.431 646.619 413.38 647.602C414.043 647.815 414.739 647.837 415.412 647.669C416.084 647.5 416.713 647.145 417.249 646.632C417.868 645.892 417.868 645.246 417.868 645.199Z" fill="#EB996E"/>
<path d="M467.819 613.13C467.471 612.622 468.051 611.282 469.599 609.85C471.658 608.106 474.083 607.082 476.602 606.892C479.121 606.656 481.644 607.281 483.876 608.694C485.578 609.85 486.275 611.097 486.004 611.605C485.423 612.807 481.593 611.236 476.873 611.605C472.152 611.975 468.515 614.193 467.819 613.13Z" fill="#263238"/>
<path d="M509.876 613.41C509.644 612.162 512.894 610.314 517.15 610.36C521.407 610.406 524.657 612.208 524.463 613.502C524.27 614.796 521.02 615.165 517.15 615.165C513.281 615.165 510.07 614.75 509.876 613.41Z" fill="#263238"/>
<path d="M412.528 584.855C413.689 593.541 414.824 602.243 415.933 610.96C416.127 615.112 417.323 619.107 419.377 622.465C423.246 627.594 430.288 627.085 435.24 623.712C442.476 618.676 446.461 609.019 449.517 599.686C452.574 590.353 455.282 580.511 461.125 573.396C465.325 578.649 470.808 582.183 476.791 583.494C482.773 584.805 488.949 583.826 494.438 580.696C499.275 577.831 503.299 573.303 507.941 569.977C510.16 568.103 512.709 566.862 515.392 566.349C518.075 565.836 520.821 566.066 523.418 567.02C526.165 568.406 528.641 571.086 531.582 570.901C532.71 570.787 533.794 570.327 534.729 569.566C535.664 568.805 536.42 567.769 536.921 566.558C537.886 564.094 538.222 561.347 537.889 558.657C536.921 548.676 530.15 540.729 522.412 536.294C511.617 529.964 499.197 529.086 487.125 529.04C475.679 528.635 464.236 529.986 453.077 533.059C441.872 536.209 431.679 543.194 423.749 553.158C419.842 558.182 416.936 564.194 415.247 570.747C413.559 577.299 413.132 584.223 413.999 591" fill="#263238"/>
<path d="M507.129 556.21C508.712 565.406 512.792 573.722 518.737 579.867C521.416 583.056 524.981 584.962 528.758 585.226C531.791 584.795 534.584 583.043 536.604 580.307C538.624 577.571 539.729 574.042 539.707 570.395C539.436 563.042 536.787 556.102 532.317 551.035C528.5 545.638 523.075 542.224 517.189 541.517C514.27 541.35 511.406 542.503 509.168 544.747C506.931 546.991 505.484 550.161 505.117 553.623" fill="#263238"/>
<path d="M472.036 626.531C472.036 627.757 472.444 628.932 473.169 629.798C473.895 630.665 474.879 631.152 475.905 631.152C476.392 631.189 476.881 631.109 477.342 630.916C477.802 630.724 478.226 630.422 478.587 630.03C478.948 629.637 479.239 629.162 479.443 628.633C479.647 628.103 479.76 627.53 479.774 626.947C479.774 625.722 479.367 624.546 478.641 623.68C477.916 622.813 476.931 622.327 475.905 622.327C475.417 622.283 474.926 622.358 474.463 622.548C474 622.739 473.574 623.04 473.212 623.433C472.85 623.827 472.559 624.305 472.356 624.837C472.154 625.37 472.045 625.947 472.036 626.531V626.531Z" fill="#263238"/>
<path d="M465.923 621.541C466.426 622.142 469.25 619.508 473.352 619.415C477.453 619.323 480.471 621.726 480.897 621.079C481.322 620.432 480.626 619.785 479.271 618.676C477.496 617.266 475.402 616.541 473.27 616.599C471.139 616.657 469.074 617.495 467.354 619C466.116 620.247 465.691 621.541 465.923 621.541Z" fill="#263238"/>
<path d="M514.055 626.392C514.055 627.618 514.462 628.793 515.188 629.659C515.914 630.526 516.898 631.013 517.924 631.013C518.412 631.057 518.903 630.981 519.366 630.791C519.829 630.601 520.255 630.3 520.617 629.906C520.979 629.512 521.27 629.034 521.473 628.502C521.675 627.969 521.784 627.393 521.793 626.808C521.793 625.583 521.385 624.407 520.66 623.541C519.934 622.674 518.95 622.188 517.924 622.188C516.955 622.183 516.02 622.612 515.304 623.391C514.588 624.169 514.142 625.24 514.055 626.392Z" fill="#263238"/>
<path d="M508.638 622.327C509.102 622.927 511.965 620.294 516.067 620.201C520.168 620.109 523.186 622.511 523.805 621.911C524.424 621.31 523.534 620.571 522.18 619.462C520.399 618.042 518.294 617.315 516.153 617.381C514.012 617.447 511.941 618.303 510.224 619.832C508.831 620.987 508.406 622.096 508.638 622.327Z" fill="#263238"/>
<path d="M493.78 678.42C493.78 678.744 492.774 679.298 490.917 679.159C488.5 678.946 486.236 677.66 484.572 675.555C482.889 673.459 481.911 670.696 481.825 667.793C481.825 665.621 482.328 664.374 482.56 664.42C482.792 664.466 482.56 669.734 486.003 673.892C489.447 678.051 493.819 677.773 493.78 678.42Z" fill="#263238"/>
<path d="M507.478 863.514L567.875 839.396C567.875 839.396 609.894 958.187 620.728 959.527C680.661 966.042 744.811 942.339 767.291 932.959C769.574 929.864 772.205 926.214 775.029 921.686C777.504 917.814 779.414 913.472 780.678 908.841C782.408 903.141 783.488 897.189 783.889 891.145C783.763 889.968 783.951 888.775 784.426 887.733C784.901 886.692 785.639 885.856 786.534 885.344C787.43 884.832 788.438 884.671 789.415 884.883C790.392 885.095 791.288 885.669 791.976 886.524C794.568 890.544 795.226 905.884 789.306 922.379C783.386 938.874 804.319 925.752 812.018 921.131C819.718 916.511 844.132 903.574 847.189 905.283C851.677 907.778 850.284 913.97 842.507 918.359C834.73 922.748 812.134 937.95 814.378 942.662C816.622 947.375 855.546 923.21 855.546 923.21C855.546 923.21 863.284 916.418 865.915 921.778C870.868 931.481 827.843 953.52 823.742 955.507C820.84 956.893 823.123 962.161 826.141 960.451C829.159 958.742 864.523 935.27 869.63 945.111C873.499 952.643 834.421 963.593 829.391 973.342C824.361 983.091 858.332 961.421 861.853 968.722C863.13 971.494 863.787 973.758 842.739 982.583C827.335 988.36 811.681 993.141 795.845 996.906V996.906C795.845 996.906 579.173 1112.69 540.481 1000.97C500.745 887.679 507.478 863.514 507.478 863.514Z" fill="#EB996E"/>
<path d="M588.111 878.531C563.928 810.934 532.279 784.458 515.564 774.663C509.708 771.269 503.339 769.32 496.837 768.934V768.934L494.825 757.29L414.734 748.696L412.761 763.482L401.153 762.696C401.153 762.696 332.128 770.967 331.973 866.471C331.973 911.151 352.131 954.629 359.251 975.93C363.7 1020.47 347.643 1101.28 348.146 1120.97L544.428 1137.6L552.476 991.177L550.657 977.316L615.272 953.659L588.111 878.531Z" fill="#EBEBEB"/>
<path d="M1022.69 555.284C994.362 513.382 956.264 482.45 913.215 466.398C870.166 450.345 824.098 449.894 780.834 465.099C737.57 480.305 699.052 510.486 670.148 551.827C641.244 593.168 623.251 643.814 618.445 697.363V697.363C614.566 740.898 619.54 784.907 632.944 825.656C646.348 866.406 667.787 902.692 695.441 931.435L495.832 1211.2L524.463 1240.36L725.659 958.233C754.548 979.536 787.076 992.815 820.84 997.091C829.039 998.142 837.279 998.666 845.525 998.662C888.521 998.491 930.602 983.824 966.924 956.347C1003.25 928.871 1032.33 889.704 1050.83 843.356C1069.33 797.007 1076.5 745.361 1071.5 694.364C1066.5 643.367 1049.54 595.093 1022.58 555.1L1022.69 555.284ZM1034.53 750.452C1029.85 802.745 1010.12 851.48 978.719 888.354C947.316 925.227 906.179 947.957 862.316 952.672C818.453 957.386 774.578 943.793 738.167 914.209C701.755 884.624 675.06 840.878 662.63 790.425C650.199 739.971 652.803 685.931 669.996 637.513C687.189 589.095 717.909 549.293 756.921 524.89C795.933 500.486 840.824 492.991 883.945 503.681C927.066 514.371 965.749 542.585 993.404 583.515C1009.16 606.712 1020.91 633.41 1027.97 662.064C1035.03 690.719 1037.26 720.761 1034.53 750.452V750.452Z" fill="#263238"/>
<path d="M1006.64 536.109C978.313 494.185 940.216 463.233 897.162 447.167C854.108 431.101 808.031 430.644 764.759 445.852C721.487 461.061 682.964 491.252 654.061 532.608C625.159 573.964 607.176 624.626 602.387 678.187V678.187C598.502 721.723 603.473 765.735 616.877 806.485C630.282 847.236 651.724 883.521 679.383 912.259L477.336 1194.11L507.941 1223.35L709.717 938.873C738.614 960.157 771.138 973.435 804.898 977.731C813.099 978.76 821.338 979.284 829.584 979.302C872.579 979.131 914.661 964.463 950.983 936.987C987.305 909.511 1016.39 870.344 1034.89 823.995C1053.39 777.646 1060.55 726.001 1055.56 675.004C1050.56 624.007 1033.6 575.733 1006.64 535.739V536.109ZM1018.48 731.276C1013.79 783.595 994.066 832.357 962.652 869.252C931.239 906.148 890.085 928.894 846.201 933.615C802.318 938.336 758.422 924.74 721.992 895.143C685.563 865.546 658.854 821.781 646.418 771.303C633.981 720.826 636.587 666.761 653.79 618.321C670.993 569.881 701.73 530.062 740.762 505.652C779.794 481.241 824.707 473.748 867.847 484.449C910.987 495.151 949.685 523.385 977.346 564.34C993.098 587.54 1004.84 614.239 1011.9 642.892C1018.96 671.546 1021.2 701.586 1018.48 731.276Z" fill="#455A64"/>
<path d="M725.659 854.642C725.086 854.06 724.579 853.393 724.15 852.656C723.221 851.269 721.789 849.283 720.281 846.557C715.576 838.942 711.323 830.945 707.551 822.623C694.945 795.125 687.287 764.785 685.068 733.548C682.849 702.311 686.119 670.865 694.667 641.224C697.195 632.278 700.246 623.555 703.798 615.119C704.997 612.069 706.119 609.851 706.855 608.327C707.153 607.502 707.558 606.738 708.054 606.062C707.831 606.922 707.547 607.757 707.203 608.558C706.622 610.175 705.616 612.439 704.494 615.488C701.246 624.054 698.404 632.831 695.982 641.779C687.887 671.307 684.852 702.479 687.059 733.437C689.266 764.396 696.669 794.507 708.828 821.976C712.455 830.304 716.486 838.373 720.9 846.141C722.409 848.959 723.724 850.761 724.537 852.471C724.971 853.148 725.347 853.875 725.659 854.642V854.642Z" fill="#263238"/>
<path d="M735.138 575.012C735.486 575.567 733.165 578.154 730.843 581.804C728.522 585.454 726.974 588.735 726.432 588.504C725.891 588.273 726.665 584.253 729.218 580.326C731.772 576.398 734.867 574.458 735.138 575.012Z" fill="#263238"/>
<path d="M534.562 827.474C535.184 829.545 535.65 831.679 535.954 833.85C536.728 837.962 537.734 843.969 538.934 851.454C541.255 866.331 544.08 887.031 546.672 909.995C549.264 932.958 550.541 953.843 551.276 968.952C551.663 976.529 551.895 982.813 551.973 986.879C552.156 989.076 552.156 991.289 551.973 993.486C551.577 991.344 551.344 989.163 551.276 986.971C550.928 982.351 550.464 976.298 549.922 969.09C548.8 954.028 547.098 933.189 544.737 910.272C542.377 887.355 539.746 866.701 537.773 851.731C536.844 844.615 536.07 838.655 535.451 833.988C534.96 831.861 534.662 829.677 534.562 827.474V827.474Z" fill="#263238"/>
<path d="M641.311 1054.43C641.311 1054.43 424.639 1170.45 385.947 1058.73C346.25 944.926 352.982 920.761 352.982 920.761L413.38 896.643C413.38 896.643 455.437 1015.43 466.232 1016.77C526.204 1023.34 590.354 999.586 612.834 990.207C615.117 987.157 617.709 983.461 620.572 978.979C623.435 974.497 625.68 969.738 628.311 965.718C634.037 957.17 638.564 955.738 641.079 952.365C647.037 944.279 652.686 950.194 649.9 954.537C647.115 958.88 640.885 963.316 634.966 979.857C629.046 996.398 650.133 988.22 658.49 985.632C667.699 982.721 684.994 974.682 684.994 974.682C685.419 979.533 680.815 989.282 673.038 993.672C668.824 996.121 664.497 998.281 660.076 1000.14C660.076 1000.14 676.056 997.784 676.481 1002.17C676.907 1006.56 671.761 1038.72 654.737 1048.38L641.311 1054.43Z" fill="#FFBE9D"/>
<path d="M399.18 793.145L438.103 933.467L352.982 973.665C352.982 973.665 308.564 835.837 364.822 802.108L399.18 793.145Z" fill="#EBEBEB"/>
<path d="M443.753 928.015C443.753 928.015 443.288 927.646 442.592 926.722C441.627 925.275 440.772 923.729 440.038 922.101C437.669 916.098 435.615 909.926 433.886 903.619C429.127 887.91 422.666 866.101 415.663 842.029L405.874 808.022C402.856 797.58 400.496 787.877 396.046 781.64C394.388 779.107 392.277 777.049 389.867 775.618C387.457 774.187 384.809 773.419 382.117 773.369C380.13 773.524 378.179 774.087 376.352 775.032C376.352 775.032 376.739 774.524 377.668 773.924C379.035 773.066 380.537 772.562 382.078 772.445C384.942 772.291 387.796 772.942 390.41 774.347C393.025 775.751 395.326 777.87 397.129 780.531C402.004 787.046 404.519 796.98 407.615 807.283C410.71 817.587 414.038 829.184 417.558 841.243C424.6 865.316 430.83 887.448 435.24 903.065C437.485 911.012 439.11 917.527 440.735 921.547C442.36 925.566 443.907 927.877 443.753 928.015Z" fill="#263238"/>
<path d="M441.934 930.648C440.955 931.613 439.876 932.42 438.722 933.051C436.594 934.483 433.46 936.424 429.553 938.734C421.814 943.355 410.787 949.361 398.599 955.322C386.412 961.282 374.843 966.041 366.524 969.183C362.384 970.754 358.786 971.955 356.619 972.694C355.373 973.229 354.071 973.556 352.75 973.665C357.014 971.291 361.41 969.269 365.905 967.612C374.108 964.054 385.251 959.064 397.671 953.15C410.091 947.236 420.886 941.46 428.934 937.21C433.149 934.704 437.491 932.513 441.934 930.648V930.648Z" fill="#263238"/>
<path d="M366.911 968.49C363.395 962.195 361.046 955.074 360.024 947.605C362.058 950.541 363.548 953.959 364.397 957.632C365.891 960.987 366.75 964.694 366.911 968.49Z" fill="#263238"/>
<path d="M384.903 960.22C384.4 960.544 382.078 956.478 380.376 950.979C379.031 947.649 378.495 943.935 378.828 940.26C380.41 943.332 381.572 946.685 382.272 950.194C383.561 953.361 384.447 956.741 384.903 960.22V960.22Z" fill="#263238"/>
<path d="M403.745 950.47C401.396 947.866 399.718 944.516 398.909 940.813C397.497 937.359 396.933 933.498 397.284 929.678C398.85 932.885 400.035 936.338 400.805 939.935C402.181 943.271 403.171 946.815 403.745 950.47V950.47Z" fill="#263238"/>
<path d="M423.904 940.769C422.039 937.533 420.724 933.891 420.035 930.049C418.75 926.439 418.079 922.56 418.062 918.637C419.969 921.828 421.287 925.466 421.931 929.31C423.252 932.923 423.924 936.826 423.904 940.769Z" fill="#263238"/>
<path d="M616.819 952.18C606.135 957.573 595.192 962.201 584.047 966.041C573.109 970.617 561.961 974.443 550.657 977.5C561.347 972.127 572.289 967.499 583.428 963.638C594.363 959.048 605.512 955.222 616.819 952.18V952.18Z" fill="#263238"/>
<path d="M564.896 968.491C564.354 968.768 562.651 965.349 561.026 960.913C559.401 956.477 558.589 952.643 559.092 952.365C559.595 952.088 561.297 955.507 562.961 959.989C564.625 964.471 565.476 968.075 564.896 968.491Z" fill="#263238"/>
<path d="M581.61 964.009C581.107 964.009 579.289 960.22 578.051 954.768C576.987 951.57 576.693 948.082 577.199 944.695C577.78 944.695 578.786 948.9 579.985 953.936C581.069 957.136 581.621 960.557 581.61 964.009V964.009Z" fill="#263238"/>
<path d="M599.718 957.17C597.299 950.99 596.145 944.212 596.352 937.395C597.843 940.33 598.756 943.632 599.021 947.051C599.903 950.315 600.141 953.778 599.718 957.17V957.17Z" fill="#263238"/>
<path d="M422.589 762.187C422.008 762.187 421.737 759.599 421.892 756.457C422.047 753.315 422.705 750.867 423.246 750.913C423.788 750.959 424.097 753.546 423.904 756.642C423.711 759.738 423.13 762.233 422.589 762.187Z" fill="#263238"/>
<path d="M440.232 763.435C439.651 763.435 439.148 760.94 439.032 757.844C438.916 754.749 439.303 752.161 439.845 752.161C440.387 752.161 440.928 754.61 441.044 757.752C441.16 760.894 440.773 763.389 440.232 763.435Z" fill="#263238"/>
<path d="M453.851 766.253C453.309 766.253 452.884 763.62 452.884 760.385C452.884 757.151 453.387 754.563 453.928 754.563C454.47 754.563 454.934 757.197 454.896 760.385C454.857 763.573 454.431 766.253 453.851 766.253Z" fill="#263238"/>
<path d="M472.268 768.655C471.765 768.655 470.642 765.836 470.565 761.863C470.488 757.889 471.416 754.84 471.919 754.978C472.422 755.117 472.461 758.12 472.577 761.77C472.693 765.42 472.848 768.47 472.268 768.655Z" fill="#263238"/>
<path d="M487.513 768.656C486.932 768.656 486.197 765.745 485.81 761.956C485.423 758.167 485.578 755.025 486.12 754.979C486.661 754.933 487.435 757.89 487.822 761.679C488.209 765.467 488.016 768.563 487.513 768.656Z" fill="#263238"/>
</svg>
