<svg width="180" height="180" viewBox="0 0 180 180" fill="none" xmlns="http://www.w3.org/2000/svg">
<path d="M151.225 37.74C150.541 37.0599 149.696 36.5145 148.748 36.1404C147.8 35.7663 146.769 35.5723 145.727 35.5714H45.2254L43.8072 28.2549C43.5249 26.7871 42.6493 25.4536 41.3362 24.4913C40.0232 23.5291 38.3578 23.0007 36.6363 23H20.2727C18.3439 23 16.494 23.6622 15.1301 24.841C13.7662 26.0198 13 27.6186 13 29.2857C13 30.9528 13.7662 32.5516 15.1301 33.7304C16.494 34.9092 18.3439 35.5714 20.2727 35.5714H30.4763L44.0035 105.745L44.3308 106.525L44.7235 107.474L45.5963 108.599L46.2872 109.303L47.6908 110.12L48.5053 110.529C49.3512 110.834 50.2577 110.994 51.1744 111H131.181C133.11 111 134.96 110.338 136.324 109.159C137.688 107.98 138.454 106.381 138.454 104.714C138.454 103.047 137.688 101.448 136.324 100.27C134.96 99.0908 133.11 98.4286 131.181 98.4286H57.3417L56.1344 92.1429H138.454C140.204 92.1431 141.896 91.5978 143.218 90.6072C144.541 89.6166 145.406 88.247 145.654 86.7497L152.927 42.7497C153.074 41.8581 152.998 40.9495 152.705 40.0853C152.411 39.2211 151.907 38.4213 151.225 37.74ZM137.341 48.1429L135.269 60.7143H109.363V48.1429H137.341ZM102.091 48.1429V60.7143H80.2725V48.1429H102.091ZM102.091 67V79.5714H80.2725V67H102.091ZM72.9998 48.1429V60.7143H51.1817L50.1053 60.9029L47.6472 48.1429H72.9998ZM51.2835 67H72.9998V79.5714H53.7053L51.2835 67ZM109.363 79.5714V67H134.221L132.149 79.5714H109.363Z" fill="#F8F8F8"/>
<path d="M63.75 157.5C69.9632 157.5 75 152.463 75 146.25C75 140.037 69.9632 135 63.75 135C57.5368 135 52.5 140.037 52.5 146.25C52.5 152.463 57.5368 157.5 63.75 157.5Z" fill="#F8F8F8"/>
<path d="M131.25 157.5C137.463 157.5 142.5 152.463 142.5 146.25C142.5 140.037 137.463 135 131.25 135C125.037 135 120 140.037 120 146.25C120 152.463 125.037 157.5 131.25 157.5Z" fill="#F8F8F8"/>
</svg>
