<svg width="222" height="101" viewBox="0 0 222 101" fill="none" xmlns="http://www.w3.org/2000/svg">
<path d="M13.3422 100.349C14.0866 100.713 14.9848 100.404 15.3483 99.6594L21.2726 87.5287C21.6361 86.7843 21.3274 85.8862 20.583 85.5226C19.8386 85.1591 18.9404 85.4678 18.5769 86.2122L13.3109 96.995L2.52805 91.729C1.78365 91.3655 0.885496 91.6742 0.521948 92.4186C0.158401 93.163 0.467154 94.0612 1.21154 94.4247L13.3422 100.349ZM208.231 1.79954C216.686 15.2282 219.115 24.6837 217.583 31.2863C216.087 37.7324 210.657 42.003 201.792 44.6898C192.934 47.3742 181.034 48.3443 167.364 48.4379C153.716 48.5313 138.447 47.7528 122.885 47.0021C91.882 45.5066 59.5888 44.1014 37.47 50.1792C26.3861 53.2249 17.5677 58.2231 12.8412 66.3062C8.09584 74.4216 7.69272 85.2656 12.5819 99.4888L15.419 98.5135C10.6831 84.7365 11.2956 74.8927 15.431 67.8205C19.5853 60.7159 27.513 56.0264 38.2649 53.072C59.8179 47.1496 91.5559 48.4943 122.74 49.9987C138.272 50.7479 153.636 51.5319 167.384 51.4378C181.111 51.3439 193.371 50.3765 202.662 47.5609C211.945 44.7477 218.651 39.9558 220.505 31.9644C222.323 24.1295 219.315 13.7725 210.77 0.201107L208.231 1.79954Z" fill="#F89522"/>
</svg>
