<svg width="276" height="117" viewBox="0 0 276 117" fill="none" xmlns="http://www.w3.org/2000/svg">
<path d="M48.5624 3.05904C49.1472 2.47228 49.1457 1.52254 48.5589 0.937721C47.9721 0.352907 47.0224 0.354483 46.4376 0.94124L48.5624 3.05904ZM275.561 106.061C276.146 105.475 276.146 104.526 275.561 103.94L266.015 94.394C265.429 93.8082 264.479 93.8082 263.893 94.394C263.308 94.9798 263.308 95.9295 263.893 96.5153L272.379 105.001L263.893 113.486C263.308 114.072 263.308 115.021 263.893 115.607C264.479 116.193 265.429 116.193 266.015 115.607L275.561 106.061ZM46.4376 0.94124C27.5771 19.8644 15.1081 35.7504 8.01682 49.0747C0.930933 62.389 -0.883625 73.3383 1.92123 82.2475C4.73242 91.1768 12.0562 97.6581 22.334 102.314C32.6086 106.968 46.0227 109.89 61.3962 111.616C92.1514 115.069 131.169 113.779 169.577 111.639C208.051 109.495 245.89 106.501 274.5 106.501L274.5 103.501C245.778 103.501 207.763 106.506 169.41 108.643C130.99 110.784 92.2053 112.057 61.731 108.635C46.4897 106.923 33.4322 104.048 23.5719 99.5812C13.7147 95.1159 7.24004 89.1518 4.78277 81.3466C2.31918 73.5214 3.76613 63.4473 10.6651 50.4842C17.5587 37.5312 29.7979 21.8859 48.5624 3.05904L46.4376 0.94124Z" fill="#F89522"/>
</svg>
