<svg width="240" height="83" viewBox="0 0 240 83" fill="none" xmlns="http://www.w3.org/2000/svg">
<path d="M10.4432 2.25652C10.713 1.47327 10.2968 0.619581 9.51352 0.349763C8.73026 0.079945 7.87658 0.496167 7.60675 1.27943L10.4432 2.25652ZM239.086 44.8286C239.671 44.2428 239.671 43.2931 239.086 42.7073L229.54 33.1613C228.954 32.5755 228.004 32.5755 227.418 33.1613C226.833 33.7471 226.833 34.6968 227.418 35.2826L235.904 43.7679L227.418 52.2532C226.833 52.839 226.833 53.7887 227.418 54.3745C228.004 54.9603 228.954 54.9603 229.54 54.3745L239.086 44.8286ZM7.60675 1.27943C1.13003 20.0808 -0.949998 35.0036 0.602418 46.693C2.16287 58.4429 7.39298 66.8894 15.3852 72.6198C23.3233 78.3113 33.8633 81.2371 45.9366 82.25C58.0227 83.2639 71.77 82.3708 86.2359 80.3155C115.162 76.2056 147.193 67.4115 174.943 59.6737C188.838 55.7994 201.648 52.1926 212.502 49.5526C223.394 46.9035 232.163 45.2679 238.025 45.2679L238.025 42.2679C231.761 42.2679 222.672 43.9917 211.793 46.6375C200.878 49.2924 188.009 52.9161 174.138 56.7839C146.356 64.5305 114.513 73.2677 85.8139 77.3453C71.4672 79.3837 57.9646 80.2485 46.1874 79.2605C34.3974 78.2714 24.4608 75.4355 17.1333 70.1817C9.85992 64.9668 5.03535 57.2844 3.57632 46.298C2.10923 35.2511 4.04487 20.8302 10.4432 2.25652L7.60675 1.27943Z" fill="#F89522"/>
</svg>
