<svg width="329" height="195" viewBox="0 0 329 195" fill="none" xmlns="http://www.w3.org/2000/svg">
<path d="M30.745 193.549C31.252 194.204 32.1941 194.324 32.8493 193.817C33.5045 193.31 33.6247 192.368 33.1177 191.713L30.745 193.549ZM315.02 0.685699C314.273 0.326568 313.377 0.640605 313.018 1.38715L307.165 13.5526C306.806 14.2991 307.12 15.1955 307.867 15.5546C308.613 15.9137 309.51 15.5997 309.869 14.8532L315.071 4.03942L325.885 9.24163C326.631 9.60076 327.528 9.28672 327.887 8.54019C328.246 7.79365 327.932 6.89733 327.185 6.5382L315.02 0.685699ZM33.1177 191.713C13.9823 166.982 4.97224 147.844 3.4771 133.013C2.73288 125.631 3.85133 119.328 6.50113 113.905C9.15459 108.474 13.3863 103.839 18.9963 99.8677C30.2571 91.8953 46.9212 86.6997 66.903 83.1659C86.8514 79.638 109.925 77.7947 133.884 76.4153C181.69 73.663 233.128 72.7663 269.499 63.8573C287.676 59.4047 302.404 52.8852 311.02 42.8685C319.754 32.7132 321.986 19.2395 315.785 1.54143L312.954 2.53342C318.896 19.4921 316.611 31.7669 308.745 40.9123C300.76 50.1964 286.802 56.53 268.785 60.9434C232.766 69.7663 181.774 70.6532 133.711 73.4203C109.735 74.8007 86.5131 76.6512 66.3806 80.2117C46.2816 83.7662 29.0792 89.0535 17.2628 97.4192C11.3341 101.617 6.72446 106.614 3.80569 112.588C0.883256 118.569 -0.301403 125.442 0.492233 133.314C2.07281 148.992 11.5023 168.679 30.745 193.549L33.1177 191.713Z" fill="#F89522"/>
</svg>
