<svg width="200" height="219" viewBox="0 0 200 219" fill="none" xmlns="http://www.w3.org/2000/svg">
<path d="M10.4845 217.351C10.7726 218.128 11.6358 218.524 12.4125 218.236C13.1892 217.948 13.5854 217.084 13.2973 216.308L10.4845 217.351ZM184.902 0.692049C184.094 0.509192 183.291 1.01597 183.108 1.82396L180.129 14.991C179.946 15.799 180.452 16.6022 181.26 16.7851C182.068 16.9679 182.872 16.4612 183.055 15.6532L185.703 3.94915L197.407 6.59788C198.215 6.78073 199.019 6.27396 199.201 5.46597C199.384 4.65797 198.877 3.85473 198.069 3.67187L184.902 0.692049ZM13.2973 216.308C4.66361 193.031 2.09468 174.232 3.94966 158.907C5.80091 143.613 12.0678 131.691 21.2739 122.146C39.7798 102.959 70.2142 93.2996 100.911 85.6644C116.164 81.8706 131.544 78.5598 145.26 74.8357C158.992 71.1077 171.302 66.906 180.53 61.2324C189.788 55.5409 196.118 48.2552 197.515 38.344C198.901 28.5149 195.376 16.4697 185.84 1.35467L183.303 2.95543C192.687 17.8297 195.785 29.1293 194.545 37.9252C193.316 46.639 187.772 53.2585 178.959 58.6767C170.117 64.1127 158.158 68.2253 144.474 71.9405C130.776 75.6598 115.593 78.9212 100.187 82.7531C69.5658 90.3695 38.2959 100.176 19.1146 120.063C9.47722 130.056 2.90475 142.574 0.971394 158.547C-0.958233 174.488 1.74293 193.783 10.4845 217.351L13.2973 216.308Z" fill="#F89522"/>
</svg>
