<svg width="289" height="224" viewBox="0 0 289 224" fill="none" xmlns="http://www.w3.org/2000/svg">
<path d="M34.5622 2.5589C35.1471 1.97215 35.1455 1.0224 34.5587 0.437587C33.972 -0.147227 33.0222 -0.145653 32.4374 0.441104L34.5622 2.5589ZM273.667 222.688C274.047 223.424 274.951 223.713 275.688 223.333L287.685 217.144C288.422 216.765 288.711 215.86 288.331 215.124C287.951 214.387 287.046 214.098 286.31 214.478L275.645 219.979L270.144 209.314C269.765 208.578 268.86 208.289 268.124 208.669C267.387 209.049 267.098 209.953 267.478 210.69L273.667 222.688ZM32.4374 0.441104C13.5564 19.3849 3.61833 35.2112 0.901745 48.6931C-1.84713 62.3353 2.83583 73.3665 12.5654 82.4487C22.2142 91.4555 36.8595 98.594 54.2385 104.719C71.6456 110.855 91.9585 116.028 113.058 121.024C155.355 131.038 200.74 140.336 233.013 155.231C249.14 162.674 261.791 171.429 269.149 182.194C276.447 192.871 278.641 205.672 273.571 221.544L276.429 222.456C281.753 205.787 279.493 192.011 271.626 180.501C263.819 169.08 250.593 160.04 234.271 152.507C201.645 137.449 155.838 128.07 113.75 118.104C92.6571 113.11 72.4796 107.968 55.2358 101.89C37.964 95.8024 23.7978 88.8298 14.6125 80.2556C5.50784 71.7568 1.33375 61.7369 3.84264 49.2857C6.3838 36.6744 15.8183 21.3651 34.5622 2.5589L32.4374 0.441104Z" fill="#F89522"/>
</svg>
