<svg width="192" height="162" viewBox="0 0 192 162" fill="none" xmlns="http://www.w3.org/2000/svg">
<path d="M175.361 159.024C174.822 159.654 174.895 160.601 175.525 161.139C176.154 161.678 177.101 161.605 177.64 160.976L175.361 159.024ZM14.2419 1.07649C13.7319 0.423675 12.7892 0.307922 12.1364 0.817947L1.49817 9.12929C0.845351 9.63931 0.729598 10.582 1.23962 11.2348C1.74965 11.8876 2.69231 12.0034 3.34513 11.4933L12.8013 4.10547L20.1892 13.5617C20.6992 14.2145 21.6419 14.3302 22.2947 13.8202C22.9475 13.3102 23.0633 12.3675 22.5532 11.7147L14.2419 1.07649ZM177.64 160.976C187.029 150.011 191.504 140.852 191.789 132.983C192.079 124.986 188.04 118.683 181.33 113.522C174.663 108.394 165.219 104.27 154.303 100.546C143.369 96.8161 130.805 93.4386 117.844 89.8664C91.8322 82.6974 64.216 74.7342 43.9629 61.5021C33.8613 54.9023 25.6672 47.0373 20.4197 37.3786C15.1825 27.739 12.8258 16.2138 14.5487 2.18278L11.571 1.81715C9.779 16.4111 12.2217 28.5735 17.7836 38.8108C23.3352 49.0291 31.9399 57.2305 42.3221 64.0135C63.0366 77.5471 91.128 85.6151 117.047 92.7586C130.05 96.3426 142.507 99.6917 153.334 103.385C164.18 107.085 173.239 111.083 179.501 115.9C185.72 120.684 189.035 126.151 188.791 132.874C188.543 139.726 184.597 148.239 175.361 159.024L177.64 160.976Z" fill="#F89522"/>
</svg>
